<?xml version="1.0" encoding="UTF-8"?>
<svg version="1.1" xmlns="http://www.w3.org/2000/svg" width="403" height="258">
<path d="M0 0 C5.14942753 4.43090276 7.07129819 8.34753025 7.70703125 14.96875 C7.6875 17.3125 7.6875 17.3125 6.828125 20.203125 C6.38653236 23.19396911 6.38653236 23.19396911 7.72924805 24.8828125 C9.29348604 26.5362519 10.91928548 28.05556464 12.625 29.5625 C14.68337254 31.44838322 16.69357536 33.35663853 18.6875 35.3125 C18.6875 35.9725 18.6875 36.6325 18.6875 37.3125 C19.6775 37.6425 20.6675 37.9725 21.6875 38.3125 C23.375 39.75 23.375 39.75 24.6875 41.3125 C24.6875 41.9725 24.6875 42.6325 24.6875 43.3125 C25.3475 43.3125 26.0075 43.3125 26.6875 43.3125 C28.03173339 44.97038785 29.36368483 46.63826317 30.6875 48.3125 C31.43 48.869375 32.1725 49.42625 32.9375 50 C33.515 50.433125 34.0925 50.86625 34.6875 51.3125 C34.6875 51.9725 34.6875 52.6325 34.6875 53.3125 C35.265 53.56 35.8425 53.8075 36.4375 54.0625 C39.09826851 55.54070473 40.82306544 56.89564039 42.6875 59.3125 C42.75 61.9375 42.75 61.9375 41.6875 64.3125 C39.3125 65.6875 39.3125 65.6875 36.6875 66.3125 C33.451102 65.23370067 32.9086794 64.66751524 30.828125 62.1328125 C25.82379782 56.25417212 20.5847543 50.62109911 15.22802734 45.06347656 C14.0287531 43.80696944 12.84222991 42.5381742 11.66845703 41.2578125 C5.24139966 33.65240276 5.24139966 33.65240276 -3.47143555 29.99975586 C-6.3833411 30.49705844 -6.3833411 30.49705844 -8.96850586 31.53833008 C-11.76135259 32.46074618 -12.90457435 32.10951371 -15.625 31.125 C-16.841875 30.856875 -18.05875 30.58875 -19.3125 30.3125 C-21.84326393 31.95005313 -23.34709933 33.15964782 -25.3125 35.3125 C-26.4571875 36.42625 -26.4571875 36.42625 -27.625 37.5625 C-28.9553125 38.92375 -28.9553125 38.92375 -30.3125 40.3125 C-31.83007734 41.85737189 -33.35120238 43.39876319 -34.875 44.9375 C-35.61878906 45.69289062 -36.36257812 46.44828125 -37.12890625 47.2265625 C-39.3125 49.3125 -39.3125 49.3125 -41.6171875 50.72265625 C-42.17664063 51.24730469 -42.73609375 51.77195313 -43.3125 52.3125 C-43.46405077 55.09824021 -43.46405077 55.09824021 -42.875 58.125 C-42.29505597 63.19798406 -42.09479789 66.08926598 -45.3125 70.3125 C-48.0765991 73.01276309 -50.84050968 75.57650484 -54.3125 77.3125 C-54.3125 92.8225 -54.3125 108.3325 -54.3125 124.3125 C-52.3325 124.9725 -50.3525 125.6325 -48.3125 126.3125 C-45.34285497 129.36463517 -43.60376415 132.27209281 -42.3125 136.3125 C-42.49140935 138.0268254 -42.72322637 139.73623092 -43 141.4375 C-43.1030559 145.6856931 -42.60266975 146.98352336 -39.7421875 150.2265625 C-36.95607363 152.68756675 -33.99812861 154.89756768 -30.98388672 157.06982422 C-28.67917504 158.78337701 -26.58642439 160.72187979 -24.4375 162.625 C-22.38437477 164.2909497 -22.38437477 164.2909497 -20.3125 165.3125 C-16.8818717 164.76217902 -16.8818717 164.76217902 -13.3125 163.3125 C-11.32665366 163.55454221 -9.34710748 163.85140148 -7.375 164.1875 C-3.6250352 164.61674125 -1.9716817 164.73546651 1.23828125 162.67578125 C3.28885347 160.64706237 5.08107444 158.70796399 6.6875 156.3125 C6.6875 155.6525 6.6875 154.9925 6.6875 154.3125 C7.6775 154.3125 8.6675 154.3125 9.6875 154.3125 C9.89375 153.673125 10.1 153.03375 10.3125 152.375 C11.6875 150.3125 11.6875 150.3125 14.6875 149.4375 C15.6775 149.39625 16.6675 149.355 17.6875 149.3125 C19.6875 151.3125 19.6875 151.3125 20.18359375 154.05859375 C19.50138801 158.53321877 17.00130362 160.51488615 13.75 163.375 C9.4565273 167.0702133 9.4565273 167.0702133 6.765625 171.953125 C6.59469873 174.55055129 6.59469873 174.55055129 7.375 178 C8.12799253 183.37270346 6.52017446 187.76305313 3.6875 192.3125 C-0.07983831 196.18376488 -4.02989944 197.60652463 -9.375 197.875 C-15.16010095 197.52895869 -18.99007439 195.92375519 -22.8515625 191.58203125 C-26.38355939 186.63920878 -27.1382554 182.29332837 -26.3125 176.3125 C-25.9825 175.3225 -25.6525 174.3325 -25.3125 173.3125 C-25.87324219 173.07144531 -26.43398437 172.83039063 -27.01171875 172.58203125 C-29.78693007 171.0507177 -31.81281351 169.16653695 -34.125 167 C-37.1213471 164.23892163 -40.06809 161.66702228 -43.4375 159.375 C-44.38625 158.694375 -45.335 158.01375 -46.3125 157.3125 C-46.3125 156.6525 -46.3125 155.9925 -46.3125 155.3125 C-47.8284375 155.5290625 -47.8284375 155.5290625 -49.375 155.75 C-50.674375 155.935625 -51.97375 156.12125 -53.3125 156.3125 C-54.405625 156.539375 -55.49875 156.76625 -56.625 157 C-60.3125 157.3125 -60.3125 157.3125 -62.4140625 156.5078125 C-65.37770261 155.3877746 -67.12397877 154.99860413 -70.3125 155.3125 C-75.50067248 158.03722368 -79.93558104 161.99362982 -84.40380859 165.74267578 C-92.39181571 172.3125 -92.39181571 172.3125 -95.3125 172.3125 C-94.94125 173.09625 -94.57 173.88 -94.1875 174.6875 C-92.99479883 179.62869055 -93.62211495 183.54433839 -95.3125 188.3125 C-97.625 191.25 -97.625 191.25 -100.3125 193.3125 C-101.034375 193.910625 -101.75625 194.50875 -102.5 195.125 C-107.82173365 197.37195421 -113.21715289 197.02412732 -118.625 195.1875 C-122.75093192 192.30894284 -125.69037651 189.17887047 -127.3125 184.3125 C-127.83416057 179.34389685 -127.8849051 175.45731021 -125.625 170.9375 C-122.06689172 166.89856628 -119.59129216 164.63219804 -114.3125 163.3125 C-114.3125 144.5025 -114.3125 125.6925 -114.3125 106.3125 C-120.32000318 107.17071474 -122.24602764 107.47716043 -126.95703125 110.47265625 C-127.96314453 111.10107422 -128.96925781 111.72949219 -130.00585938 112.37695312 C-131.03517578 113.03630859 -132.06449219 113.69566406 -133.125 114.375 C-135.19168035 115.68207688 -137.26057806 116.9856566 -139.33203125 118.28515625 C-140.24057861 118.86531494 -141.14912598 119.44547363 -142.08520508 120.04321289 C-144.3125 121.3125 -144.3125 121.3125 -146.3125 121.3125 C-146.26029297 122.18261719 -146.26029297 122.18261719 -146.20703125 123.0703125 C-146.02719909 128.25975496 -146.15179234 131.96652697 -149.3125 136.3125 C-153.44038221 140.13686146 -157.32085968 141.65308914 -162.9375 141.875 C-169.27163151 141.55084666 -172.41940312 139.3550519 -176.6875 134.75 C-178.99018515 129.87893525 -179.08629561 125.61063119 -178.3125 120.3125 C-176.01453056 115.45141081 -173.17358919 112.61046944 -168.3125 110.3125 C-161.98154114 109.48388921 -157.70440705 109.82361897 -152.3125 113.3125 C-148.77810495 112.18929689 -145.71711035 110.47576904 -142.5546875 108.5625 C-141.24564453 107.77359375 -141.24564453 107.77359375 -139.91015625 106.96875 C-139.01167969 106.4221875 -138.11320312 105.875625 -137.1875 105.3125 C-136.28128906 104.7659375 -135.37507813 104.219375 -134.44140625 103.65625 C-131.02580305 101.59170762 -127.63372819 99.52665213 -124.3125 97.3125 C-123.57906572 94.24693402 -123.57906572 94.24693402 -123.3125 91.3125 C-132.10899066 86.69311384 -141.05125985 82.88035481 -150.3125 79.3125 C-150.90546875 79.94542969 -151.4984375 80.57835937 -152.109375 81.23046875 C-156.00190517 84.90904779 -160.03013757 85.29214504 -165.25 85.375 C-170.4700681 84.53042758 -173.88910563 81.14539131 -177.3125 77.3125 C-179.67234362 73.3794273 -179.77350191 69.84568547 -179.3125 65.3125 C-177.88492883 60.98111929 -176.03539403 57.98375874 -172.6875 54.875 C-167.5826979 52.51166569 -162.55040661 51.36995869 -157.03125 52.9765625 C-152.75926144 54.93721397 -149.69965304 57.18088897 -147.3125 61.3125 C-147.19728484 62.74313135 -147.08707941 64.17417047 -146.98046875 65.60546875 C-146.27155768 68.95013551 -145.6835804 70.03991301 -142.890625 72.09155273 C-139.64598745 73.72239643 -136.3790333 75.10779656 -133 76.4375 C-131.85853516 76.92992188 -130.71707031 77.42234375 -129.54101562 77.9296875 C-122.68727373 80.89286375 -122.68727373 80.89286375 -115.3125 80.3125 C-115.3125 64.1425 -115.3125 47.9725 -115.3125 31.3125 C-117.6225 29.9925 -119.9325 28.6725 -122.3125 27.3125 C-126.07372939 22.46249368 -127.68485896 18.63290907 -127.59375 12.4375 C-126.94832844 7.56098153 -124.29531919 4.20171736 -120.6875 0.9375 C-115.73796609 -2.4490232 -111.19363209 -2.25611774 -105.3125 -1.6875 C-100.98642883 -0.37704778 -98.23447044 2.01674361 -95.9375 5.875 C-93.54658446 10.93270594 -93.34163307 12.75248498 -94.75 18.0625 C-95.6094118 22.34640565 -95.6094118 22.34640565 -94.125 26.234375 C-92.23460751 27.87105763 -92.23460751 27.87105763 -90.01171875 29.390625 C-86.57582606 31.83702038 -83.61901209 34.66526668 -80.5625 37.5625 C-75.68962461 42.24854827 -75.68962461 42.24854827 -70.3125 46.3125 C-68.27378755 46.1362956 -68.27378755 46.1362956 -66.3125 45.3125 C-61.87164506 43.93430364 -57.31901246 43.74875991 -52.828125 45.01049805 C-50.29262309 45.57883661 -50.29262309 45.57883661 -48.35546875 44.11254883 C-47.74316406 43.50435303 -47.13085938 42.89615723 -46.5 42.26953125 C-45.47519531 41.27663086 -45.47519531 41.27663086 -44.4296875 40.26367188 C-43.73101562 39.55791016 -43.03234375 38.85214844 -42.3125 38.125 C-40.91810469 36.7550452 -39.52230539 35.38651775 -38.125 34.01953125 C-37.46838379 33.37250244 -36.81176758 32.72547363 -36.13525391 32.05883789 C-33.26669555 29.31053922 -30.25197469 26.93057545 -26.9375 24.75 C-24.53909992 21.15239987 -25.59269368 18.23059421 -26.125 14.06640625 C-26.41299873 9.83642485 -25.54884753 7.91951214 -23.3125 4.3125 C-16.52293816 -2.98287446 -8.84703991 -4.5069826 0 0 Z M-106.3125 30.3125 C-106.3125 47.1425 -106.3125 63.9725 -106.3125 81.3125 C-104.9925 81.9725 -103.6725 82.6325 -102.3125 83.3125 C-99.17087102 87.01513416 -98.7970044 90.40623233 -98.953125 95.09765625 C-99.6092926 99.14164567 -101.79728623 102.07862592 -104.93069458 104.63023376 C-106.91349687 107.04417809 -106.65645898 108.7605505 -106.60888672 111.85375977 C-106.59304031 113.55551109 -106.59304031 113.55551109 -106.57687378 115.29164124 C-106.54892731 116.51668869 -106.52098083 117.74173615 -106.4921875 119.00390625 C-106.47286163 120.26009262 -106.45353577 121.51627899 -106.43362427 122.81053162 C-106.38869395 125.46813844 -106.33760987 128.12478554 -106.27636719 130.78198242 C-106.19866837 134.19054686 -106.14800298 137.59887911 -106.1054821 141.00804234 C-106.06133851 144.25694492 -105.9945591 147.50536138 -105.9296875 150.75390625 C-105.91388641 151.98097794 -105.89808533 153.20804962 -105.88180542 154.4723053 C-105.85232819 155.60365402 -105.82285095 156.73500275 -105.79248047 157.90063477 C-105.7723288 158.8997438 -105.75217712 159.89885284 -105.73141479 160.92823792 C-105.52405197 162.10844765 -105.52405197 162.10844765 -105.3125 163.3125 C-102.65577986 165.52399342 -102.65577986 165.52399342 -100.46875 165.1875 C-97.5240598 163.99255325 -95.32491231 162.2575934 -92.8125 160.3125 C-91.76578125 159.50941406 -90.7190625 158.70632812 -89.640625 157.87890625 C-89.09728516 157.45883301 -88.55394531 157.03875977 -87.99414062 156.60595703 C-85.20410655 154.45996392 -82.38201793 152.35700437 -79.5625 150.25 C-78.05429688 149.11884766 -78.05429688 149.11884766 -76.515625 147.96484375 C-75.78859375 147.41957031 -75.0615625 146.87429687 -74.3125 146.3125 C-74.539375 145.1575 -74.76625 144.0025 -75 142.8125 C-75.57916826 138.07842897 -74.71191275 134.43103223 -72.3125 130.3125 C-69.875 128.0625 -69.875 128.0625 -67.3125 126.3125 C-64.99886288 124.88848325 -64.99886288 124.88848325 -63.3125 122.3125 C-62.7651839 118.9311736 -62.89272485 115.5992224 -63 112.18359375 C-63.01836914 111.19754654 -63.03673828 110.21149933 -63.05566406 109.1955719 C-63.09983777 107.11329873 -63.15428673 105.03122178 -63.21826172 102.94946289 C-63.31224879 99.75852868 -63.36342218 96.5688899 -63.41015625 93.37695312 C-63.45836915 91.35410382 -63.50906624 89.33131188 -63.5625 87.30859375 C-63.58316528 85.87416176 -63.58316528 85.87416176 -63.60424805 84.41075134 C-63.65319214 83.07905663 -63.65319214 83.07905663 -63.703125 81.72045898 C-63.72407227 80.93976547 -63.74501953 80.15907196 -63.76660156 79.35472107 C-64.51854863 76.5416664 -65.85061412 75.75701831 -68.3125 74.3125 C-68.9725 74.3125 -69.6325 74.3125 -70.3125 74.3125 C-70.97916667 72.97916667 -71.64583333 71.64583333 -72.3125 70.3125 C-72.869375 69.425625 -73.42625 68.53875 -74 67.625 C-75.39984541 64.09205683 -75.27472058 63.50509273 -74.484375 60.02734375 C-74.1258235 57.24567355 -73.97653634 55.86875578 -75.44067383 53.44458008 C-77.16092498 51.66801195 -78.94825281 50.11231651 -80.875 48.5625 C-81.49697266 48.02496094 -82.11894531 47.48742187 -82.75976562 46.93359375 C-84.58780881 45.363425 -86.44778675 43.83876704 -88.3125 42.3125 C-89.17077393 41.5690332 -89.17077393 41.5690332 -90.04638672 40.81054688 C-92.78280002 38.15096582 -92.78280002 38.15096582 -96.3125 37.3125 C-96.3125 36.6525 -96.3125 35.9925 -96.3125 35.3125 C-100.52830605 31.01896684 -100.52830605 31.01896684 -106.3125 30.3125 Z " fill="#377197" transform="translate(274.3125,47.6875)"/>
<path d="M0 0 C4.4228494 2.42004967 7.36857486 4.9310443 8.98046875 9.8515625 C10.08734792 16.05446951 8.45500806 21.41514037 5.3125 26.8125 C4.3225 27.4725 3.3325 28.1325 2.3125 28.8125 C0.8275 28.3175 0.8275 28.3175 -0.6875 27.8125 C-1.0175 45.3025 -1.3475 62.7925 -1.6875 80.8125 C-1.0275 81.1425 -0.3675 81.4725 0.3125 81.8125 C3.94521756 86.08628536 4.89740544 89.24789889 4.640625 94.6953125 C4.1852287 97.63370289 3.18693754 99.52152078 1.3125 101.8125 C0.3225 102.4725 -0.6675 103.1325 -1.6875 103.8125 C-2.1654392 106.39466021 -2.1654392 106.39466021 -2.11987305 109.45556641 C-2.13966721 110.63663971 -2.15946136 111.81771301 -2.17985535 113.03457642 C-2.18624527 114.31480682 -2.19263519 115.59503723 -2.19921875 116.9140625 C-2.22614555 118.87416763 -2.22614555 118.87416763 -2.25361633 120.87387085 C-2.30119103 124.34919199 -2.3309515 127.82444789 -2.35705566 131.29998779 C-2.38682394 134.84595633 -2.43336691 138.39169984 -2.47851562 141.9375 C-2.56463322 148.89570532 -2.63194062 155.85398548 -2.6875 162.8125 C-6.5625 160.9375 -6.5625 160.9375 -7.6875 159.8125 C-7.83596253 157.37013833 -7.92290472 154.95276883 -7.96875 152.5078125 C-7.98684219 151.76048859 -8.00493439 151.01316467 -8.02357483 150.24319458 C-8.06214789 148.63943052 -8.09865846 147.03561581 -8.1333313 145.4317627 C-8.22293599 141.30580746 -8.32784088 137.18025607 -8.43359375 133.0546875 C-8.45405258 132.24813721 -8.47451141 131.44158691 -8.49559021 130.6105957 C-8.72162607 122.00126098 -9.14162002 113.40720601 -9.6875 104.8125 C-12.57320703 103.96539302 -14.14724844 103.5946158 -16.97998047 104.73706055 C-17.74713379 105.21957275 -18.51428711 105.70208496 -19.3046875 106.19921875 C-20.15933594 106.72580078 -21.01398438 107.25238281 -21.89453125 107.79492188 C-22.77496094 108.35759766 -23.65539062 108.92027344 -24.5625 109.5 C-26.30958697 110.58773583 -28.05697726 111.67498464 -29.8046875 112.76171875 C-30.63452148 113.28556152 -31.46435547 113.8094043 -32.31933594 114.34912109 C-34.43679454 115.65757953 -36.57739742 116.8827473 -38.7578125 118.08203125 C-41.75476866 119.494807 -41.75476866 119.494807 -42.6875 121.8125 C-42.83972614 123.24737228 -42.96089931 124.6856569 -43.0625 126.125 C-43.50888673 130.10421887 -43.90329285 132.76727343 -46.6875 135.8125 C-50.88294729 138.48699084 -54.90692686 140.2177383 -59.9375 139.75 C-64.58003853 138.58936537 -67.28840518 137.35632877 -70.5 133.8125 C-72.66163035 128.35153912 -72.57513723 122.41993435 -70.6875 116.875 C-67.31935026 113.40159558 -63.46740663 110.93314694 -58.52734375 110.71875 C-55.63196189 111.02181801 -53.14182983 111.57197244 -50.5625 112.9375 C-47.70394547 114.27149212 -45.71956666 113.51458801 -42.6875 112.8125 C-39.87416811 111.47333838 -39.87416811 111.47333838 -37.140625 109.72265625 C-36.13128906 109.10326172 -35.12195313 108.48386719 -34.08203125 107.84570312 C-33.04433594 107.19537109 -32.00664062 106.54503906 -30.9375 105.875 C-29.88433594 105.22853516 -28.83117187 104.58207031 -27.74609375 103.91601562 C-22.42085103 100.74767963 -22.42085103 100.74767963 -17.6875 96.8125 C-17.44537127 94.83121492 -17.44537127 94.83121492 -17.5625 92.6875 C-17.60375 91.40875 -17.645 90.13 -17.6875 88.8125 C-26.89357315 84.49777457 -36.2728528 80.64237406 -45.6875 76.8125 C-46.5846875 77.60914062 -47.481875 78.40578125 -48.40625 79.2265625 C-53.0879299 83.11972002 -57.84522172 83.69880887 -63.8125 83.9375 C-68.30197841 82.18074758 -70.9447046 78.69623784 -73.6875 74.8125 C-75.37929466 69.73711603 -75.25121867 65.49285564 -73.0625 60.625 C-70.89720852 56.74551944 -68.7946796 54.71397204 -64.6875 52.8125 C-59.5529748 51.4944088 -55.19970232 51.19449297 -50.3125 53.4375 C-46.94451385 55.44063692 -44.67733408 57.3685564 -42.6875 60.8125 C-42.57228484 62.24313135 -42.46207941 63.67417047 -42.35546875 65.10546875 C-41.64655768 68.45013551 -41.0585804 69.53991301 -38.265625 71.59155273 C-35.02098745 73.22239643 -31.7540333 74.60779656 -28.375 75.9375 C-27.23353516 76.42992188 -26.09207031 76.92234375 -24.91601562 77.4296875 C-18.06227373 80.39286375 -18.06227373 80.39286375 -10.6875 79.8125 C-10.6875 63.6425 -10.6875 47.4725 -10.6875 30.8125 C-12.9975 29.4925 -15.3075 28.1725 -17.6875 26.8125 C-21.44872939 21.96249368 -23.05985896 18.13290907 -22.96875 11.9375 C-22.32332844 7.06098153 -19.67031919 3.70171736 -16.0625 0.4375 C-10.64652297 -3.2681685 -5.96647459 -1.92140707 0 0 Z " fill="#516B80" transform="translate(169.6875,48.1875)"/>
<path d="M0 0 C1.9375 1.0625 1.9375 1.0625 3 3 C3.77264565 10.09915999 2.04010892 13.40681432 -2.25 18.9375 C-3.36120614 20.43710811 -4.47186835 21.93711941 -5.58203125 23.4375 C-6.15260254 24.19546875 -6.72317383 24.9534375 -7.31103516 25.734375 C-9.93049021 29.24818577 -12.42830158 32.84461272 -14.9375 36.4375 C-24.162129 49.52658211 -33.5732014 62.47950301 -43.09863281 75.35107422 C-45.59728689 78.72857012 -48.09015105 82.10737338 -50.51953125 85.53515625 C-51.21433594 86.51355469 -51.90914063 87.49195313 -52.625 88.5 C-53.19476563 89.3146875 -53.76453125 90.129375 -54.3515625 90.96875 C-57.24323192 94.53194455 -59.1815097 95.86358495 -63.75 96.625 C-69.30757716 96.39816012 -72.3632475 92.86589747 -76 89 C-77.71319716 87.13069375 -79.37895274 85.23418613 -81.01953125 83.30078125 C-83.45101463 80.4760402 -85.97264494 77.73853682 -88.5 75 C-94.62355777 68.3414041 -100.56267263 61.55575539 -106.375 54.625 C-106.81658447 54.10035156 -107.25816895 53.57570312 -107.71313477 53.03515625 C-111.85405473 48.07026532 -111.85405473 48.07026532 -112.375 44.25 C-111.85676994 39.75867278 -110.34254471 37.98695484 -107 35 C-102.52841588 34.1869847 -100.55478399 34.69739055 -96.5625 36.875 C-95.716875 37.57625 -94.87125 38.2775 -94 39 C-94 39.66 -94 40.32 -94 41 C-93.11054688 41.38285156 -93.11054688 41.38285156 -92.203125 41.7734375 C-89.7732551 43.12623741 -88.50763734 44.48341276 -86.75 46.625 C-81.21454185 53.15188349 -75.16021624 58.99025302 -68.6640625 64.5546875 C-67.39833536 65.65402798 -66.1854566 66.8145434 -65 68 C-58.78970708 60.47455554 -58.78970708 60.47455554 -52.75 52.8125 C-48.93960696 47.87310162 -44.98683665 43.05266487 -41.04223633 38.22045898 C-37.45203285 33.81329843 -33.92508503 29.36358624 -30.4375 24.875 C-26.59306293 19.94164752 -22.63055139 15.1257273 -18.5625 10.375 C-18.06613037 9.79476074 -17.56976074 9.21452148 -17.05834961 8.61669922 C-8.13998154 -1.71368032 -8.13998154 -1.71368032 0 0 Z " fill="#3B789D" transform="translate(362,92)"/>
<path d="M0 0 C3.89852386 1.59768221 7.79331463 3.20427526 11.6875 4.8125 C12.79029297 5.26431641 13.89308594 5.71613281 15.02929688 6.18164062 C16.09599609 6.62314453 17.16269531 7.06464844 18.26171875 7.51953125 C19.73064575 8.12438354 19.73064575 8.12438354 21.22924805 8.74145508 C24.00590979 10.00268438 26.52488807 11.21237322 29 13 C29.73314856 16.44015863 30.01906162 17.79548095 29 21 C26.78593304 23.67589688 23.9629618 25.23733151 21 27 C19.76775558 27.75443536 18.53602261 28.50970644 17.3046875 29.265625 C14.11372164 31.20967285 10.90609749 33.12250988 7.67822266 35.00463867 C6.17497436 35.89622193 4.70044739 36.83581945 3.23046875 37.78125 C0.11452492 39.48383227 -1.6306419 38.91253449 -5 38 C-5.78375 37.62875 -6.5675 37.2575 -7.375 36.875 C-12.11822342 35.29392553 -16.40408089 36.27142823 -20.875 38.3125 C-23.21395003 40.16990149 -23.91372404 41.25066437 -25 44 C-25.31538897 46.6490303 -25.31538897 46.6490303 -25.25 49.4375 C-25.25515625 50.36433594 -25.2603125 51.29117188 -25.265625 52.24609375 C-24.97508564 55.25830334 -24.46153414 57.34640208 -23 60 C-19.26567342 62.25553325 -15.19676045 63.04787042 -10.875 62.875 C-4.53006391 61.26546951 -4.53006391 61.26546951 0.1796875 57.17578125 C1.30805996 54.18290763 1.34147051 51.39005569 1.4609375 48.21875 C2.38531865 44.41405077 5.26090588 42.49223356 8.42602539 40.38427734 C9.30766357 39.8733252 10.18930176 39.36237305 11.09765625 38.8359375 C12.06380859 38.27132812 13.02996094 37.70671875 14.02539062 37.125 C15.02763672 36.5475 16.02988281 35.97 17.0625 35.375 C19.05373281 34.21674286 21.04463314 33.05791388 23.03515625 31.8984375 C23.9156665 31.38974121 24.79617676 30.88104492 25.70336914 30.35693359 C27.50300073 29.29364536 29.26078485 28.15947677 31 27 C35.54054054 27.54054054 35.54054054 27.54054054 37 29 C37.23003203 31.44409027 37.38449783 33.86166381 37.5 36.3125 C37.54278076 37.10978516 37.58556152 37.90707031 37.62963867 38.72851562 C37.89099899 44.06587012 38.0345553 49.39930516 38.11001587 54.74198914 C38.15644494 58.0053455 38.21616128 61.26843094 38.27490234 64.53158569 C38.29996724 66.17718136 38.31770845 67.82290487 38.328125 69.46865845 C38.34321756 71.81304564 38.38232347 74.1559911 38.42578125 76.5 C38.42383255 77.21177902 38.42188385 77.92355804 38.4198761 78.65690613 C38.43191833 80.89110443 38.43191833 80.89110443 39 84 C40.96322556 85.71838984 40.96322556 85.71838984 43 87 C42.98889694 86.27194656 42.97779388 85.54389313 42.96635437 84.79377747 C42.86605137 77.92303873 42.78998393 71.05240982 42.74093914 64.18112659 C42.71487612 60.64867155 42.67954134 57.11682287 42.62280273 53.5847168 C42.55793936 49.52126339 42.53379268 45.45844402 42.51171875 41.39453125 C42.48591232 40.1297847 42.4601059 38.86503815 42.43351746 37.56196594 C42.43076546 28.95705127 42.43076546 28.95705127 44.11123657 26.13168335 C45.46801758 24.7878418 45.46801758 24.7878418 48 23 C49.73107488 19.53785023 49.48819473 15.78509418 49 12 C47.90291271 9.63814832 46.6695627 8.03477954 45 6 C47.85278483 6.29511567 48.83578823 6.81232941 50.75 9 C52.45763218 13.09831723 52.71056651 16.62074773 52 21 C50.39724198 23.98444597 49.0102006 26.18011588 46.37882996 28.31575012 C44.39128484 30.74354958 44.67583158 32.46833678 44.7512207 35.57299805 C44.77146805 36.71395432 44.79171539 37.85491058 44.81257629 39.03044128 C44.84993393 40.26176285 44.88729156 41.49308441 44.92578125 42.76171875 C44.95222214 44.02264847 44.97866302 45.28357819 45.00590515 46.5827179 C45.07886868 49.93195014 45.16503055 53.28031622 45.25756836 56.62902832 C45.34878868 60.04735762 45.42269061 63.46605633 45.49804688 66.88476562 C45.64938232 73.59029978 45.81812699 80.29522841 46 87 C48.35764741 87.67171842 48.35764741 87.67171842 51 88 C53.27598024 86.60241532 55.110855 85.2715635 57.125 83.5625 C58.26581974 82.63795486 59.4077679 81.71480055 60.55078125 80.79296875 C61.1226416 80.32552246 61.69450195 79.85807617 62.28369141 79.37646484 C64.89547567 77.28183616 67.59616671 75.33230613 70.3125 73.375 C71.21613281 72.72273438 72.11976563 72.07046875 73.05078125 71.3984375 C73.69402344 70.93695313 74.33726562 70.47546875 75 70 C74.773125 68.845 74.54625 67.69 74.3125 66.5 C73.74073586 61.74931263 74.5471015 58.11453942 77 54 C79.62805699 51.10698904 82.25547226 49.24817591 86 48 C86 48.66 86 49.32 86 50 C85.071875 50.53625 84.14375 51.0725 83.1875 51.625 C79.3201481 54.50655632 77.82287588 57.26615224 77 62 C77.43629732 65.3657222 77.88497494 65.89900238 80.5625 68.25 C81.366875 68.8275 82.17125 69.405 83 70 C82.625 71.9375 82.625 71.9375 82 74 C81.01 74.495 81.01 74.495 80 75 C85.82474442 77.3969081 89.69200252 78.30925492 95.8125 76.5 C100.07840888 75.5975962 101.47867887 75.68259276 105.265625 77.98828125 C108.13309105 80.32289668 110.77217978 82.88207755 113.40087891 85.47949219 C116.68667373 88.60375633 120.36961728 91.25685729 123.953125 94.02734375 C126.14686956 96.14154414 126.71743342 97.01863425 127 100 C126.9708124 101.45938016 126.90705165 102.91839355 126.8125 104.375 C126.7668089 109.00503181 127.88350226 111.46235392 131 115 C134.83643932 118.38509352 138.63432308 118.51632897 143.5625 118.34765625 C147.24866644 117.82190495 149.28983949 116.51185609 152 114 C155.15545908 109.37199334 155.51683454 105.40688443 155 100 C154.54753906 98.59234375 154.54753906 98.59234375 154.0859375 97.15625 C154 94 154 94 155.12109375 92.3984375 C156.81004687 90.68043605 158.55727234 89.08112262 160.375 87.5 C165.30319683 83.32580305 165.30319683 83.32580305 167.9140625 77.59375 C167.94242188 76.7378125 167.97078125 75.881875 168 75 C164.54074837 76.2491742 161.85306797 77.67527795 159 80 C160.24976756 76.34683329 160.67098753 75.21934164 164 73 C168.54054054 73.54054054 168.54054054 73.54054054 170 75 C170.43359375 77.68359375 170.43359375 77.68359375 170 81 C168.06505862 83.26764623 166.27571511 85.11557411 164.0625 87.0625 C159.7690273 90.7577133 159.7690273 90.7577133 157.078125 95.640625 C156.90719873 98.23805129 156.90719873 98.23805129 157.6875 101.6875 C158.44049253 107.06020346 156.83267446 111.45055313 154 116 C150.23266169 119.87126488 146.28260056 121.29402463 140.9375 121.5625 C135.15239905 121.21645869 131.32242561 119.61125519 127.4609375 115.26953125 C123.92894061 110.32670878 123.1742446 105.98082837 124 100 C124.33 99.01 124.66 98.02 125 97 C124.43925781 96.75894531 123.87851563 96.51789063 123.30078125 96.26953125 C120.52556993 94.7382177 118.49968649 92.85403695 116.1875 90.6875 C113.1911529 87.92642163 110.24441 85.35452228 106.875 83.0625 C105.92625 82.381875 104.9775 81.70125 104 81 C104 80.34 104 79.68 104 79 C102.4840625 79.2165625 102.4840625 79.2165625 100.9375 79.4375 C99.638125 79.623125 98.33875 79.80875 97 80 C95.906875 80.226875 94.81375 80.45375 93.6875 80.6875 C90 81 90 81 87.8984375 80.1953125 C84.93479739 79.0752746 83.18852123 78.68610413 80 79 C74.81182752 81.72472368 70.37691896 85.68112982 65.90869141 89.43017578 C57.92068429 96 57.92068429 96 55 96 C55.37125 96.78375 55.7425 97.5675 56.125 98.375 C57.31770117 103.31619055 56.69038505 107.23183839 55 112 C52.6875 114.9375 52.6875 114.9375 50 117 C49.278125 117.598125 48.55625 118.19625 47.8125 118.8125 C42.49076635 121.05945421 37.09534711 120.71162732 31.6875 118.875 C27.56156808 115.99644284 24.62212349 112.86637047 23 108 C22.47833943 103.03139685 22.4275949 99.14481021 24.6875 94.625 C28.24560828 90.58606628 30.72120784 88.31969804 36 87 C36 68.19 36 49.38 36 30 C29.99249682 30.85821474 28.06647236 31.16466043 23.35546875 34.16015625 C22.34935547 34.78857422 21.34324219 35.41699219 20.30664062 36.06445312 C19.27732422 36.72380859 18.24800781 37.38316406 17.1875 38.0625 C15.12081965 39.36957688 13.05192194 40.6731566 10.98046875 41.97265625 C10.07192139 42.55281494 9.16337402 43.13297363 8.22729492 43.73071289 C6 45 6 45 4 45 C4.05220703 45.87011719 4.05220703 45.87011719 4.10546875 46.7578125 C4.28530091 51.94725496 4.16070766 55.65402697 1 60 C-3.12788221 63.82436146 -7.00835968 65.34058914 -12.625 65.5625 C-18.95913151 65.23834666 -22.10690312 63.0425519 -26.375 58.4375 C-28.67768515 53.56643525 -28.77379561 49.29813119 -28 44 C-25.70203056 39.13891081 -22.86108919 36.29796944 -18 34 C-11.66904114 33.17138921 -7.39190705 33.51111897 -2 37 C1.53439505 35.87679689 4.59538965 34.16326904 7.7578125 32.25 C8.63050781 31.7240625 9.50320312 31.198125 10.40234375 30.65625 C11.30082031 30.1096875 12.19929688 29.563125 13.125 29 C14.03121094 28.4534375 14.93742187 27.906875 15.87109375 27.34375 C19.28669695 25.27920762 22.67877181 23.21415213 26 21 C26.73343428 17.93443402 26.73343428 17.93443402 27 15 C18.20350934 10.38061384 9.26124015 6.56785481 0 3 C-0.5878125 3.63421875 -1.175625 4.2684375 -1.78125 4.921875 C-5.62554064 8.52251342 -9.87061328 9 -15 9 C-15 8.34 -15 7.68 -15 7 C-14.25234375 6.82984375 -13.5046875 6.6596875 -12.734375 6.484375 C-11.74953125 6.24203125 -10.7646875 5.9996875 -9.75 5.75 C-8.77546875 5.51796875 -7.8009375 5.2859375 -6.796875 5.046875 C-3.66380946 3.87416332 -2.26703906 2.40289159 0 0 Z " fill="#357197" transform="translate(124,124)"/>
<path d="M0 0 C5.14942753 4.43090276 7.07129819 8.34753025 7.70703125 14.96875 C7.6875 17.3125 7.6875 17.3125 6.828125 20.203125 C6.38653236 23.19396911 6.38653236 23.19396911 7.72924805 24.8828125 C9.29348604 26.5362519 10.91928548 28.05556464 12.625 29.5625 C14.68337254 31.44838322 16.69357536 33.35663853 18.6875 35.3125 C18.6875 35.9725 18.6875 36.6325 18.6875 37.3125 C19.6775 37.6425 20.6675 37.9725 21.6875 38.3125 C23.375 39.75 23.375 39.75 24.6875 41.3125 C24.6875 41.9725 24.6875 42.6325 24.6875 43.3125 C25.3475 43.3125 26.0075 43.3125 26.6875 43.3125 C28.03173339 44.97038785 29.36368483 46.63826317 30.6875 48.3125 C31.43 48.869375 32.1725 49.42625 32.9375 50 C33.515 50.433125 34.0925 50.86625 34.6875 51.3125 C34.6875 51.9725 34.6875 52.6325 34.6875 53.3125 C35.265 53.56 35.8425 53.8075 36.4375 54.0625 C39.09826851 55.54070473 40.82306544 56.89564039 42.6875 59.3125 C42.75 61.9375 42.75 61.9375 41.6875 64.3125 C39.3125 65.6875 39.3125 65.6875 36.6875 66.3125 C33.451102 65.23370067 32.9086794 64.66751524 30.828125 62.1328125 C25.82379782 56.25417212 20.5847543 50.62109911 15.22802734 45.06347656 C14.0287531 43.80696944 12.84222991 42.5381742 11.66845703 41.2578125 C5.24139966 33.65240276 5.24139966 33.65240276 -3.47143555 29.99975586 C-6.3833411 30.49705844 -6.3833411 30.49705844 -8.96850586 31.53833008 C-11.76135259 32.46074618 -12.90457435 32.10951371 -15.625 31.125 C-16.841875 30.856875 -18.05875 30.58875 -19.3125 30.3125 C-21.84326393 31.95005313 -23.34709933 33.15964782 -25.3125 35.3125 C-26.4571875 36.42625 -26.4571875 36.42625 -27.625 37.5625 C-28.9553125 38.92375 -28.9553125 38.92375 -30.3125 40.3125 C-31.83007734 41.85737189 -33.35120238 43.39876319 -34.875 44.9375 C-35.61878906 45.69289062 -36.36257812 46.44828125 -37.12890625 47.2265625 C-39.3125 49.3125 -39.3125 49.3125 -41.6171875 50.72265625 C-42.17664063 51.24730469 -42.73609375 51.77195313 -43.3125 52.3125 C-43.46405077 55.09824021 -43.46405077 55.09824021 -42.875 58.125 C-42.29505597 63.19798406 -42.09479789 66.08926598 -45.3125 70.3125 C-48.0765991 73.01276309 -50.84050968 75.57650484 -54.3125 77.3125 C-54.3125 92.8225 -54.3125 108.3325 -54.3125 124.3125 C-51.3425 125.3025 -51.3425 125.3025 -48.3125 126.3125 C-45.34285497 129.36463517 -43.60376415 132.27209281 -42.3125 136.3125 C-42.49140935 138.0268254 -42.72322637 139.73623092 -43 141.4375 C-43.1030559 145.6856931 -42.60266975 146.98352336 -39.7421875 150.2265625 C-36.95607363 152.68756675 -33.99812861 154.89756768 -30.98388672 157.06982422 C-28.67917504 158.78337701 -26.58642439 160.72187979 -24.4375 162.625 C-22.38437477 164.2909497 -22.38437477 164.2909497 -20.3125 165.3125 C-16.8818717 164.76217902 -16.8818717 164.76217902 -13.3125 163.3125 C-11.32665366 163.55454221 -9.34710748 163.85140148 -7.375 164.1875 C-3.57789937 164.63168913 -1.97534114 164.75608587 1.23828125 162.60546875 C3.21984196 160.59575087 5.00379801 158.57559356 6.6875 156.3125 C6.6875 160.16237971 5.63589335 160.85352273 3 163.5625 C2.31550781 164.28953125 1.63101563 165.0165625 0.92578125 165.765625 C-1.3125 167.3125 -1.3125 167.3125 -3.8359375 167.05859375 C-4.65320313 166.81238281 -5.47046875 166.56617188 -6.3125 166.3125 C-11.90797391 165.93543914 -11.90797391 165.93543914 -17.078125 167.69140625 C-20.3125 168.3125 -20.3125 168.3125 -22.14672852 167.38696289 C-24.23828642 165.82891452 -26.18167598 164.17700635 -28.125 162.4375 C-28.82625 161.8297876 -29.5275 161.2220752 -30.25 160.59594727 C-31.64352808 159.38643057 -33.03122886 158.17016257 -34.41259766 156.94677734 C-35.99817049 155.58288316 -37.66862122 154.31847533 -39.35546875 153.08203125 C-41.78031061 151.27400131 -43.611189 149.81552468 -45.3125 147.3125 C-45.73816201 144.1390001 -45.63121498 141.27124418 -45.39453125 138.08203125 C-45.10930282 135.11093682 -45.10930282 135.11093682 -46.8125 131.875 C-49.15184836 129.47716793 -50.48982658 128.72023776 -53.40014648 127.32592773 C-55.96429657 125.74157988 -57.10099565 124.93533432 -58.07962036 122.05349731 C-58.39023145 119.18741472 -58.44759767 116.41797201 -58.41015625 113.53515625 C-58.42018173 112.49105087 -58.43020721 111.4469455 -58.4405365 110.37120056 C-58.45034774 108.16649268 -58.43983277 105.96161333 -58.41040039 103.75708008 C-58.37512904 100.38732815 -58.43035775 97.02736701 -58.49414062 93.65820312 C-58.49244824 91.51300955 -58.4854625 89.36781227 -58.47265625 87.22265625 C-58.49401138 86.21936783 -58.51536652 85.21607941 -58.53736877 84.18238831 C-58.35435227 77.30770477 -58.35435227 77.30770477 -55.30587769 74.39572144 C-52.87280273 72.79467773 -52.87280273 72.79467773 -50.44798279 71.49778748 C-48.07646556 70.35571804 -48.07646556 70.35571804 -46.1875 67.6875 C-45.06487717 64.45805534 -45.06487717 64.45805534 -45.93359375 61.79296875 C-46.78470055 58.20100952 -47.05432384 55.96327349 -46.3125 52.3125 C-42.55062059 47.09871492 -37.30613464 43.07473048 -32.37255859 39.01757812 C-29.60080137 36.72343823 -26.96321291 34.30768891 -24.3125 31.875 C-22.98079969 30.68566897 -21.64822272 29.49731174 -20.3125 28.3125 C-21.3025 27.3225 -22.2925 26.3325 -23.3125 25.3125 C-27.60331554 27.00984964 -30.57879488 30.13176771 -33.875 33.25 C-34.45185547 33.78818359 -35.02871094 34.32636719 -35.62304688 34.88085938 C-38.82002557 37.86412778 -38.82002557 37.86412778 -41.87475586 40.99047852 C-43.3125 42.3125 -43.3125 42.3125 -45.3125 42.3125 C-45.9725 44.6225 -46.6325 46.9325 -47.3125 49.3125 C-48.4675 48.9825 -49.6225 48.6525 -50.8125 48.3125 C-56.60434948 46.87480687 -61.948628 46.24743029 -67.3125 49.3125 C-68.6325 49.3125 -69.9525 49.3125 -71.3125 49.3125 C-71.3125 48.6525 -71.3125 47.9925 -71.3125 47.3125 C-71.90708008 47.04010498 -72.50166016 46.76770996 -73.11425781 46.48706055 C-75.25690556 45.34220512 -76.73256637 44.18605302 -78.484375 42.51953125 C-79.06292236 41.97474121 -79.64146973 41.42995117 -80.23754883 40.86865234 C-80.83978271 40.29324707 -81.4420166 39.7178418 -82.0625 39.125 C-83.31022007 37.94557926 -84.55891246 36.76718624 -85.80859375 35.58984375 C-86.40913574 35.02378418 -87.00967773 34.45772461 -87.62841797 33.87451172 C-90.32107222 31.37703392 -93.12195276 29.01303568 -95.95703125 26.6796875 C-97.3125 25.3125 -97.3125 25.3125 -98.3125 22.3125 C-97.9825 21.61125 -97.6525 20.91 -97.3125 20.1875 C-95.86458964 16.02475771 -96.18530224 12.54509025 -97.3125 8.3125 C-100.47042674 2.98349862 -103.7942868 1.38292267 -109.51953125 -0.2421875 C-110.40705078 -0.46261719 -110.40705078 -0.46261719 -111.3125 -0.6875 C-111.3125 -1.0175 -111.3125 -1.3475 -111.3125 -1.6875 C-106.8307168 -2.12474714 -103.77912588 -1.42069745 -99.921875 0.96875 C-96.36970983 3.93463548 -94.75484205 7.98547385 -93.3125 12.3125 C-93.75982626 14.23684691 -94.24351218 16.15287127 -94.75 18.0625 C-95.6094118 22.34640565 -95.6094118 22.34640565 -94.125 26.234375 C-92.23460751 27.87105763 -92.23460751 27.87105763 -90.01171875 29.390625 C-86.57582606 31.83702038 -83.61901209 34.66526668 -80.5625 37.5625 C-75.68962461 42.24854827 -75.68962461 42.24854827 -70.3125 46.3125 C-68.27378755 46.1362956 -68.27378755 46.1362956 -66.3125 45.3125 C-61.87164506 43.93430364 -57.31901246 43.74875991 -52.828125 45.01049805 C-50.29262309 45.57883661 -50.29262309 45.57883661 -48.35546875 44.11254883 C-47.74316406 43.50435303 -47.13085938 42.89615723 -46.5 42.26953125 C-45.81679687 41.60759766 -45.13359375 40.94566406 -44.4296875 40.26367188 C-43.73101562 39.55791016 -43.03234375 38.85214844 -42.3125 38.125 C-40.91810469 36.7550452 -39.52230539 35.38651775 -38.125 34.01953125 C-37.46838379 33.37250244 -36.81176758 32.72547363 -36.13525391 32.05883789 C-33.26669555 29.31053922 -30.25197469 26.93057545 -26.9375 24.75 C-24.53909992 21.15239987 -25.59269368 18.23059421 -26.125 14.06640625 C-26.41299873 9.83642485 -25.54884753 7.91951214 -23.3125 4.3125 C-16.52293816 -2.98287446 -8.84703991 -4.5069826 0 0 Z " fill="#38749A" transform="translate(274.3125,47.6875)"/>
<path d="M0 0 C1.17219543 0.78345715 2.33763668 1.57702836 3.5 2.375 C4.1496875 2.81585938 4.799375 3.25671875 5.46875 3.7109375 C6.22671875 4.34902344 6.22671875 4.34902344 7 5 C7 5.66 7 6.32 7 7 C7.59022949 7.26804443 8.18045898 7.53608887 8.78857422 7.81225586 C11.01766904 9.00948994 12.55874782 10.26251195 14.3828125 12.00390625 C14.99253906 12.57947266 15.60226563 13.15503906 16.23046875 13.74804688 C16.85566406 14.34681641 17.48085937 14.94558594 18.125 15.5625 C19.37568283 16.75332327 20.62820262 17.94222111 21.8828125 19.12890625 C22.43340332 19.65556885 22.98399414 20.18223145 23.55126953 20.72485352 C24.99204489 22.10237804 24.99204489 22.10237804 27 23 C27 23.66 27 24.32 27 25 C28.155 24.505 29.31 24.01 30.5 23.5 C37.32787211 20.95911638 43.18720646 21.72906882 50 24 C50.495 22.7315625 50.495 22.7315625 51 21.4375 C53.14721486 17.74697446 55.28572631 15.76836452 58.52734375 13.078125 C61.60203587 10.49402357 64.5484849 7.78546568 67.5 5.0625 C68.31102173 4.31673706 68.31102173 4.31673706 69.13842773 3.5559082 C70.42643285 2.37149044 71.7133364 1.18587495 73 0 C75.99332739 0.9977758 76.94766315 1.7522025 79 4 C77.71416016 5.17755859 77.71416016 5.17755859 76.40234375 6.37890625 C68.27890318 13.79834881 68.27890318 13.79834881 60.50390625 21.578125 C59 23 59 23 57.21484375 24.109375 C55.19333804 25.26898465 55.19333804 25.26898465 53 28 C52.95164434 31.11234619 53.32627784 34.03866164 53.74609375 37.12109375 C54.08421158 40.95482981 53.29595129 42.93873162 51 46 C48.0846559 48.69108686 45.57967567 50.21016216 42 52 C42 67.51 42 83.02 42 99 C37 100 37 100 34 99 C33.99857498 98.43037033 33.99714996 97.86074066 33.99568176 97.27384949 C33.97601683 91.3525661 33.92181337 85.43231806 33.84741211 79.51147461 C33.82419458 77.30093816 33.80982763 75.09029049 33.80444336 72.87963867 C33.79518139 69.70420728 33.75425037 66.53053418 33.70703125 63.35546875 C33.7109639 62.36475876 33.71489655 61.37404877 33.71894836 60.35331726 C33.66454504 57.80327815 33.5797726 55.48397171 33 53 C30.72264628 50.89322451 30.72264628 50.89322451 28 50 C25.14966576 46.90535139 23.02542698 44.10170793 22 40 C22.185625 39.37480469 22.37125 38.74960938 22.5625 38.10546875 C23.35155455 35.36843576 23.5842582 33.81968086 23 31 C17.89722166 24.89236685 11.56833411 20.0857602 5.1875 15.375 C4.135625 14.59125 3.08375 13.8075 2 13 C2 12.34 2 11.68 2 11 C1.443125 10.731875 0.88625 10.46375 0.3125 10.1875 C-2.21225334 8.89100504 -4.63714484 7.57523677 -7 6 C-7 5.34 -7 4.68 -7 4 C-5.824375 3.8453125 -5.824375 3.8453125 -4.625 3.6875 C-1.66954819 3.22404978 -1.66954819 3.22404978 0 0 Z " fill="#356D91" transform="translate(176,72)"/>
<path d="M0 0 C4.4228494 2.42004967 7.36857486 4.9310443 8.98046875 9.8515625 C10.08734792 16.05446951 8.45500806 21.41514037 5.3125 26.8125 C4.3225 27.4725 3.3325 28.1325 2.3125 28.8125 C1.3225 28.4825 0.3325 28.1525 -0.6875 27.8125 C-0.6875 28.4725 -0.6875 29.1325 -0.6875 29.8125 C-1.6775 29.8125 -2.6675 29.8125 -3.6875 29.8125 C-3.6875 46.3125 -3.6875 62.8125 -3.6875 79.8125 C-5.3375 79.8125 -6.9875 79.8125 -8.6875 79.8125 C-8.6875 63.3125 -8.6875 46.8125 -8.6875 29.8125 C-11.3275 29.1525 -13.9675 28.4925 -16.6875 27.8125 C-18.52734375 26.19140625 -18.52734375 26.19140625 -19.625 24.375 C-20.00527344 23.77816406 -20.38554687 23.18132812 -20.77734375 22.56640625 C-22.92182203 18.43391378 -23.29098024 14.37212846 -22.6875 9.8125 C-18.47466877 -1.54382766 -10.4881304 -3.37753352 0 0 Z " fill="#3982AB" transform="translate(169.6875,48.1875)"/>
<path d="M0 0 C4.58922126 2.65287697 7.89696171 5.02910858 10.0390625 10.02734375 C10.71218589 16.79309675 10.44563047 22.63549921 8.0390625 29.02734375 C7.3996875 28.82109375 6.7603125 28.61484375 6.1015625 28.40234375 C3.04785619 28.02842053 1.72448075 28.31695617 -1.1484375 29.15234375 C-6.60750805 30.54927763 -10.83180783 29.01903084 -15.9609375 27.02734375 C-15.9609375 26.03734375 -15.9609375 25.04734375 -15.9609375 24.02734375 C-15.3009375 24.02734375 -14.6409375 24.02734375 -13.9609375 24.02734375 C-14.53438687 21.16009689 -14.822389 20.16589225 -16.9609375 18.02734375 C-17.6209375 18.35734375 -18.2809375 18.68734375 -18.9609375 19.02734375 C-20.4415657 13.6432412 -19.63519743 9.80643945 -16.9609375 5.02734375 C-12.8609375 1.02734375 -12.8609375 1.02734375 -9.9609375 1.02734375 C-9.9609375 0.36734375 -9.9609375 -0.29265625 -9.9609375 -0.97265625 C-5.97382624 -2.30169334 -3.76354716 -1.86677937 0 0 Z " fill="#377297" transform="translate(219.9609375,172.97265625)"/>
<path d="M0 0 C4.81375764 2.02968139 7.1835967 4.48319974 9.234375 9.27734375 C10.15301777 12.45137231 10.11745288 15.09837793 9.84375 18.3828125 C9.18375 18.3828125 8.52375 18.3828125 7.84375 18.3828125 C7.8025 18.9396875 7.76125 19.4965625 7.71875 20.0703125 C6.36794093 23.6403079 4.0991887 25.58193152 0.84375 27.3828125 C-2.78562106 28.53219963 -6.3371073 29.43077662 -10.15625 29.3828125 C-11.828125 28.03515625 -11.828125 28.03515625 -13.15625 26.3828125 C-14.001875 25.7434375 -14.8475 25.1040625 -15.71875 24.4453125 C-18.72975531 21.89753878 -19.88600694 19.93411158 -20.5625 16.05078125 C-20.74410412 11.24583885 -20.54890491 8.16828319 -17.40625 4.3828125 C-12.48416656 -0.78786101 -6.82975786 -1.95489446 0 0 Z " fill="#3A84AD" transform="translate(117.15625,102.6171875)"/>
<path d="M0 0 C3.0625 2.1875 3.0625 2.1875 4 4.4375 C4.020625 5.015 4.04125 5.5925 4.0625 6.1875 C4.7225 6.1875 5.3825 6.1875 6.0625 6.1875 C5.42605761 18.71883122 5.42605761 18.71883122 2.0625 22.1875 C-2.14471918 24.85235777 -6.14904499 26.59347115 -11.1875 26.125 C-15.83003853 24.96436537 -18.53840518 23.73132877 -21.75 20.1875 C-23.91163035 14.72653912 -23.82513723 8.79493435 -21.9375 3.25 C-15.38849222 -3.50366427 -8.18464885 -4.19254461 0 0 Z " fill="#37769B" transform="translate(120.9375,161.8125)"/>
<path d="M0 0 C2.85278483 0.29511567 3.83578823 0.81232941 5.75 3 C7.45763218 7.09831723 7.71056651 10.62074773 7 15 C5.39724198 17.98444597 4.0102006 20.18011588 1.37882996 22.31575012 C-0.60871516 24.74354958 -0.32416842 26.46833678 -0.2487793 29.57299805 C-0.22853195 30.71395432 -0.20828461 31.85491058 -0.18742371 33.03044128 C-0.15006607 34.26176285 -0.11270844 35.49308441 -0.07421875 36.76171875 C-0.04777786 38.02264847 -0.02133698 39.28357819 0.00590515 40.5827179 C0.07886868 43.93195014 0.16503055 47.28031622 0.25756836 50.62902832 C0.34878868 54.04735762 0.42269061 57.46605633 0.49804688 60.88476562 C0.64938232 67.59029978 0.81812699 74.29522841 1 81 C3.35764741 81.67171842 3.35764741 81.67171842 6 82 C8.27598024 80.60241532 10.110855 79.2715635 12.125 77.5625 C13.26581974 76.63795486 14.4077679 75.71480055 15.55078125 74.79296875 C16.1226416 74.32552246 16.69450195 73.85807617 17.28369141 73.37646484 C19.89547567 71.28183616 22.59616671 69.33230613 25.3125 67.375 C26.66794922 66.39660156 26.66794922 66.39660156 28.05078125 65.3984375 C29.01564453 64.70621094 29.01564453 64.70621094 30 64 C29.773125 62.845 29.54625 61.69 29.3125 60.5 C28.74073586 55.74931263 29.5471015 52.11453942 32 48 C34.62805699 45.10698904 37.25547226 43.24817591 41 42 C41 42.66 41 43.32 41 44 C40.071875 44.53625 39.14375 45.0725 38.1875 45.625 C34.3201481 48.50655632 32.82287588 51.26615224 32 56 C32.43629732 59.3657222 32.88497494 59.89900238 35.5625 62.25 C36.7690625 63.11625 36.7690625 63.11625 38 64 C37.625 65.9375 37.625 65.9375 37 68 C36.01 68.495 36.01 68.495 35 69 C40.82474442 71.3969081 44.69200252 72.30925492 50.8125 70.5 C55.07840888 69.5975962 56.47867887 69.68259276 60.265625 71.98828125 C63.13309105 74.32289668 65.77217978 76.88207755 68.40087891 79.47949219 C71.68667373 82.60375633 75.36961728 85.25685729 78.953125 88.02734375 C81.14686956 90.14154414 81.71743342 91.01863425 82 94 C81.9708124 95.45938016 81.90705165 96.91839355 81.8125 98.375 C81.7668089 103.00503181 82.88350226 105.46235392 86 109 C89.83643932 112.38509352 93.63432308 112.51632897 98.5625 112.34765625 C102.24866644 111.82190495 104.28983949 110.51185609 107 108 C110.15545908 103.37199334 110.51683454 99.40688443 110 94 C109.69835937 93.0615625 109.39671875 92.123125 109.0859375 91.15625 C109 88 109 88 110.12109375 86.3984375 C111.81004687 84.68043605 113.55727234 83.08112262 115.375 81.5 C120.30319683 77.32580305 120.30319683 77.32580305 122.9140625 71.59375 C122.94242187 70.7378125 122.97078125 69.881875 123 69 C119.54074837 70.2491742 116.85306797 71.67527795 114 74 C115.24976756 70.34683329 115.67098753 69.21934164 119 67 C123.54054054 67.54054054 123.54054054 67.54054054 125 69 C125.43359375 71.68359375 125.43359375 71.68359375 125 75 C123.06505862 77.26764623 121.27571511 79.11557411 119.0625 81.0625 C114.7690273 84.7577133 114.7690273 84.7577133 112.078125 89.640625 C111.90719873 92.23805129 111.90719873 92.23805129 112.6875 95.6875 C113.44049253 101.06020346 111.83267446 105.45055313 109 110 C105.23266169 113.87126488 101.28260056 115.29402463 95.9375 115.5625 C90.15239905 115.21645869 86.32242561 113.61125519 82.4609375 109.26953125 C78.92894061 104.32670878 78.1742446 99.98082837 79 94 C79.495 92.515 79.495 92.515 80 91 C79.43925781 90.75894531 78.87851563 90.51789063 78.30078125 90.26953125 C75.52556993 88.7382177 73.49968649 86.85403695 71.1875 84.6875 C68.1911529 81.92642163 65.24441 79.35452228 61.875 77.0625 C60.92625 76.381875 59.9775 75.70125 59 75 C59 74.34 59 73.68 59 73 C57.4840625 73.2165625 57.4840625 73.2165625 55.9375 73.4375 C54.638125 73.623125 53.33875 73.80875 52 74 C50.906875 74.226875 49.81375 74.45375 48.6875 74.6875 C45 75 45 75 42.8984375 74.1953125 C39.93479739 73.0752746 38.18852123 72.68610413 35 73 C29.81182752 75.72472368 25.37691896 79.68112982 20.90869141 83.43017578 C12.92068429 90 12.92068429 90 10 90 C10.33 91.32 10.66 92.64 11 94 C10.34 94 9.68 94 9 94 C8.67 92.68 8.34 91.36 8 90 C8.54938232 89.5968457 9.09876465 89.19369141 9.66479492 88.77832031 C12.17316938 86.9366419 14.6803435 85.09333607 17.1875 83.25 C18.48397461 82.29867187 18.48397461 82.29867187 19.80664062 81.328125 C23.93405958 78.29186278 28.03626911 75.24976694 32 72 C31.67 70.68 31.34 69.36 31 68 C27.68312316 68.61105228 25.6768893 69.76847155 23.03125 71.8359375 C21.92716797 72.69058594 21.92716797 72.69058594 20.80078125 73.5625 C20.04152344 74.160625 19.28226563 74.75875 18.5 75.375 C16.98958548 76.54948192 15.47916888 77.72396118 13.96875 78.8984375 C13.30294922 79.42099121 12.63714844 79.94354492 11.95117188 80.48193359 C11.30728516 80.98289551 10.66339844 81.48385742 10 82 C9.31099609 82.56283691 8.62199219 83.12567383 7.91210938 83.70556641 C6 85 6 85 3.4375 84.8125 C1 84 1 84 -2 82 C-2.39440918 79.51530457 -2.39440918 79.51530457 -2.41992188 76.34448242 C-2.43583374 75.15952682 -2.45174561 73.97457123 -2.46813965 72.75370789 C-2.46834106 71.46728897 -2.46854248 70.18087006 -2.46875 68.85546875 C-2.47636353 67.53839432 -2.48397705 66.22131989 -2.49182129 64.86433411 C-2.50528362 62.07247417 -2.50682826 59.28089702 -2.50097656 56.48901367 C-2.49509219 52.91750562 -2.52560792 49.34736256 -2.56609344 45.77611828 C-2.59823191 42.36502551 -2.59385411 38.95421244 -2.59375 35.54296875 C-2.61014526 34.26262253 -2.62654053 32.98227631 -2.64343262 31.66313171 C-2.56652541 21.79158365 -2.56652541 21.79158365 0.47460938 18.77856445 C1.30798828 18.19163818 2.14136719 17.60471191 3 17 C4.73107488 13.53785023 4.48819473 9.78509418 4 6 C2.90291271 3.63814832 1.6695627 2.03477954 0 0 Z " fill="#15395E" transform="translate(169,130)"/>
<path d="M0 0 C6.25201072 0.58981233 6.25201072 0.58981233 8.9375 2.0625 C10.6916922 5.26132108 10.57224754 8.49153598 10 12 C8.60991541 14.92994871 6.73249195 17.3817281 4.75 19.9375 C3.63879386 21.43710811 2.52813165 22.93711941 1.41796875 24.4375 C0.84739746 25.19546875 0.27682617 25.9534375 -0.31103516 26.734375 C-2.93049021 30.24818577 -5.42830158 33.84461272 -7.9375 37.4375 C-17.162129 50.52658211 -26.5732014 63.47950301 -36.09863281 76.35107422 C-38.59728689 79.72857012 -41.09015105 83.10737338 -43.51953125 86.53515625 C-44.21433594 87.51355469 -44.90914063 88.49195313 -45.625 89.5 C-46.19476563 90.3146875 -46.76453125 91.129375 -47.3515625 91.96875 C-50.24323192 95.53194455 -52.1815097 96.86358495 -56.75 97.625 C-62.30757716 97.39816012 -65.3632475 93.86589747 -69 90 C-70.71319716 88.13069375 -72.37895274 86.23418613 -74.01953125 84.30078125 C-76.45101463 81.4760402 -78.97264494 78.73853682 -81.5 76 C-87.62355777 69.3414041 -93.56267263 62.55575539 -99.375 55.625 C-99.81658447 55.10035156 -100.25816895 54.57570312 -100.71313477 54.03515625 C-104.85405473 49.07026532 -104.85405473 49.07026532 -105.375 45.25 C-104.85676994 40.75867278 -103.34254471 38.98695484 -100 36 C-95.52841588 35.1869847 -93.55478399 35.69739055 -89.5625 37.875 C-88.716875 38.57625 -87.87125 39.2775 -87 40 C-87 40.66 -87 41.32 -87 42 C-86.11054688 42.38285156 -86.11054688 42.38285156 -85.203125 42.7734375 C-82.7732551 44.12623741 -81.50763734 45.48341276 -79.75 47.625 C-74.21454185 54.15188349 -68.16021624 59.99025302 -61.6640625 65.5546875 C-60.39833536 66.65402798 -59.1854566 67.8145434 -58 69 C-51.78970708 61.47455554 -51.78970708 61.47455554 -45.75 53.8125 C-41.93960696 48.87310162 -37.98683665 44.05266487 -34.04223633 39.22045898 C-30.45203285 34.81329843 -26.92508503 30.36358624 -23.4375 25.875 C-19.59306293 20.94164752 -15.63055139 16.1257273 -11.5625 11.375 C-11.06613037 10.79476074 -10.56976074 10.21452148 -10.05834961 9.61669922 C-7.4774497 6.62717519 -4.83614908 3.74898611 -2 1 C-2 4.91872658 -3.13624999 5.52376313 -5.8125 8.3125 C-9.57026975 12.35887589 -13.05798367 16.50886845 -16.4375 20.875 C-19.88331491 25.31817724 -23.37919177 29.69634521 -27 34 C-30.50542314 38.17890601 -33.94156082 42.400189 -37.3125 46.6875 C-37.76061035 47.25484863 -38.2087207 47.82219727 -38.67041016 48.40673828 C-41.31788791 51.78057293 -43.88745966 55.19970395 -46.41015625 58.66796875 C-46.98660889 59.45018799 -47.56306152 60.23240723 -48.15698242 61.03833008 C-49.28403137 62.57122556 -50.39801472 64.11383208 -51.49731445 65.66674805 C-52.26821411 66.70955933 -52.26821411 66.70955933 -53.0546875 67.7734375 C-53.50312012 68.39653809 -53.95155273 69.01963867 -54.41357422 69.66162109 C-56 71 -56 71 -58.49194336 71.4050293 C-61.58951971 70.9047977 -62.19414358 70.20633495 -64.07421875 67.74609375 C-67.08648473 64.0433978 -70.27150425 60.59609386 -73.64453125 57.22265625 C-74.14435516 56.72164398 -74.64417908 56.22063171 -75.15914917 55.70443726 C-76.18661502 54.67676703 -77.21520083 53.65021541 -78.24487305 52.62475586 C-79.83045796 51.04460356 -81.41053442 49.45908024 -82.99023438 47.87304688 C-83.99967892 46.86426194 -85.00943299 45.85578662 -86.01953125 44.84765625 C-86.92807861 43.94023682 -87.83662598 43.03281738 -88.77270508 42.09790039 C-91.67671859 39.36259533 -92.45560365 39.03888545 -96.5 38.75 C-97.655 38.8325 -98.81 38.915 -100 39 C-102.342884 42.514326 -102.47979639 43.86240103 -102 48 C-100.45252856 50.67274373 -100.45252856 50.67274373 -98.1875 53.125 C-97.36894531 54.07246094 -96.55039062 55.01992187 -95.70703125 55.99609375 C-94.80739324 56.99982756 -93.90497987 58.00107981 -93 59 C-92.54028809 59.50934082 -92.08057617 60.01868164 -91.60693359 60.54345703 C-89.27483298 63.11823201 -86.92527612 65.67602103 -84.5625 68.22265625 C-81.90453339 71.10347067 -79.31984501 74.03706548 -76.75 76.99609375 C-73.88944114 80.27168905 -70.99204172 83.5121879 -68.05859375 86.72265625 C-66.87229783 88.03501018 -65.70541094 89.36680031 -64.59765625 90.74609375 C-62.98023251 92.66848628 -61.55613313 93.86296514 -59.09765625 94.46875 C-56.74852212 94.64373206 -55.25747508 94.72683857 -53 94 C-49.20047269 90.68743742 -46.37478996 86.9327041 -43.5 82.8125 C-42.62169929 81.56337609 -41.7427611 80.31470023 -40.86328125 79.06640625 C-40.40002441 78.40656738 -39.93676758 77.74672852 -39.45947266 77.06689453 C-36.89841007 73.43993637 -34.29110542 69.84647606 -31.6875 66.25 C-30.57809903 64.71486252 -29.46872428 63.17970609 -28.359375 61.64453125 C-26.14223418 58.57825897 -23.92319812 55.51336843 -21.703125 52.44921875 C-15.79202894 44.28564686 -9.89293923 36.11420989 -4.1237793 27.84936523 C-2.03497708 24.8579462 0.06650219 21.91433617 2.3046875 19.03125 C6.63142492 13.40127842 7.80488551 10.12898592 7 3 C4.69 2.67 2.38 2.34 0 2 C0 1.34 0 0.68 0 0 Z " fill="#174262" transform="translate(355,91)"/>
<path d="M0 0 C3.89852386 1.59768221 7.79331463 3.20427526 11.6875 4.8125 C12.79029297 5.26431641 13.89308594 5.71613281 15.02929688 6.18164062 C16.09599609 6.62314453 17.16269531 7.06464844 18.26171875 7.51953125 C19.73064575 8.12438354 19.73064575 8.12438354 21.22924805 8.74145508 C24.00590979 10.00268438 26.52488807 11.21237322 29 13 C29.73314856 16.44015863 30.01906162 17.79548095 29 21 C26.78593304 23.67589688 23.9629618 25.23733151 21 27 C19.76775558 27.75443536 18.53602261 28.50970644 17.3046875 29.265625 C14.11372164 31.20967285 10.90609749 33.12250988 7.67822266 35.00463867 C6.17497436 35.89622193 4.70044739 36.83581945 3.23046875 37.78125 C0.11452492 39.48383227 -1.6306419 38.91253449 -5 38 C-5.78375 37.62875 -6.5675 37.2575 -7.375 36.875 C-12.11822342 35.29392553 -16.40408089 36.27142823 -20.875 38.3125 C-23.21395003 40.16990149 -23.91372404 41.25066437 -25 44 C-25.31538897 46.6490303 -25.31538897 46.6490303 -25.25 49.4375 C-25.25515625 50.36433594 -25.2603125 51.29117188 -25.265625 52.24609375 C-24.97508564 55.25830334 -24.46153414 57.34640208 -23 60 C-19.26567342 62.25553325 -15.19676045 63.04787042 -10.875 62.875 C-4.53006391 61.26546951 -4.53006391 61.26546951 0.1796875 57.17578125 C1.30805996 54.18290763 1.34147051 51.39005569 1.4609375 48.21875 C2.38531865 44.41405077 5.26090588 42.49223356 8.42602539 40.38427734 C9.30766357 39.8733252 10.18930176 39.36237305 11.09765625 38.8359375 C12.06380859 38.27132812 13.02996094 37.70671875 14.02539062 37.125 C15.02763672 36.5475 16.02988281 35.97 17.0625 35.375 C19.05373281 34.21674286 21.04463314 33.05791388 23.03515625 31.8984375 C23.9156665 31.38974121 24.79617676 30.88104492 25.70336914 30.35693359 C27.50300073 29.29364536 29.26078485 28.15947677 31 27 C35.54054054 27.54054054 35.54054054 27.54054054 37 29 C37.26075596 31.40474939 37.43611015 33.77363547 37.5625 36.1875 C37.6049585 36.97745361 37.64741699 37.76740723 37.69116211 38.58129883 C38.40045496 54.3641352 38.07865218 70.20543285 38 86 C37.34 86 36.68 86 36 86 C36 67.52 36 49.04 36 30 C29.99249682 30.85821474 28.06647236 31.16466043 23.35546875 34.16015625 C22.34935547 34.78857422 21.34324219 35.41699219 20.30664062 36.06445312 C19.27732422 36.72380859 18.24800781 37.38316406 17.1875 38.0625 C15.12081965 39.36957688 13.05192194 40.6731566 10.98046875 41.97265625 C10.07192139 42.55281494 9.16337402 43.13297363 8.22729492 43.73071289 C6 45 6 45 4 45 C4.05220703 45.87011719 4.05220703 45.87011719 4.10546875 46.7578125 C4.28530091 51.94725496 4.16070766 55.65402697 1 60 C-3.12788221 63.82436146 -7.00835968 65.34058914 -12.625 65.5625 C-18.95913151 65.23834666 -22.10690312 63.0425519 -26.375 58.4375 C-28.67768515 53.56643525 -28.77379561 49.29813119 -28 44 C-25.70203056 39.13891081 -22.86108919 36.29796944 -18 34 C-11.66904114 33.17138921 -7.39190705 33.51111897 -2 37 C1.53439505 35.87679689 4.59538965 34.16326904 7.7578125 32.25 C8.63050781 31.7240625 9.50320312 31.198125 10.40234375 30.65625 C11.30082031 30.1096875 12.19929688 29.563125 13.125 29 C14.03121094 28.4534375 14.93742187 27.906875 15.87109375 27.34375 C19.28669695 25.27920762 22.67877181 23.21415213 26 21 C26.73343428 17.93443402 26.73343428 17.93443402 27 15 C18.20350934 10.38061384 9.26124015 6.56785481 0 3 C-0.5878125 3.63421875 -1.175625 4.2684375 -1.78125 4.921875 C-5.62554064 8.52251342 -9.87061328 9 -15 9 C-15 8.34 -15 7.68 -15 7 C-14.25234375 6.82984375 -13.5046875 6.6596875 -12.734375 6.484375 C-11.74953125 6.24203125 -10.7646875 5.9996875 -9.75 5.75 C-8.77546875 5.51796875 -7.8009375 5.2859375 -6.796875 5.046875 C-3.66380946 3.87416332 -2.26703906 2.40289159 0 0 Z " fill="#24455D" transform="translate(124,124)"/>
<path d="M0 0 C0.99 0.33 1.98 0.66 3 1 C2 3 2 3 0.2890625 3.80859375 C-3.40359467 5.73053989 -6.20265356 8.71123777 -9.19799805 11.55688477 C-11.74348095 13.96045652 -14.2452345 16.18573601 -17.04296875 18.3046875 C-19.77365607 20.40758634 -21.97995642 22.20301658 -24 25 C-24.31511571 28.28742333 -23.96610288 31.02277247 -23.40234375 34.26953125 C-23 37 -23 37 -24 40.375 C-26.98609943 44.2942555 -30.55921791 47.77960895 -35 50 C-35 65.51 -35 81.02 -35 97 C-33.02 97.66 -31.04 98.32 -29 99 C-26.03035497 102.05213517 -24.29126415 104.95959281 -23 109 C-23.17890935 110.7143254 -23.41072637 112.42373092 -23.6875 114.125 C-23.7905559 118.3731931 -23.29016975 119.67102336 -20.4296875 122.9140625 C-17.64357363 125.37506675 -14.68562861 127.58506768 -11.67138672 129.75732422 C-9.36667504 131.47087701 -7.27392439 133.40937979 -5.125 135.3125 C-3.07187477 136.9784497 -3.07187477 136.9784497 -1 138 C2.4306283 137.44967902 2.4306283 137.44967902 6 136 C7.98584634 136.24204221 9.96539252 136.53890148 11.9375 136.875 C15.73460063 137.31918913 17.33715886 137.44358587 20.55078125 135.29296875 C22.53234196 133.28325087 24.31629801 131.26309356 26 129 C26 132.84987971 24.94839335 133.54102273 22.3125 136.25 C21.62800781 136.97703125 20.94351563 137.7040625 20.23828125 138.453125 C18 140 18 140 15.4765625 139.74609375 C14.25066406 139.37677734 14.25066406 139.37677734 13 139 C7.40452609 138.62293914 7.40452609 138.62293914 2.234375 140.37890625 C-1 141 -1 141 -2.83422852 140.07446289 C-4.92578642 138.51641452 -6.86917598 136.86450635 -8.8125 135.125 C-9.51375 134.5172876 -10.215 133.9095752 -10.9375 133.28344727 C-12.33102808 132.07393057 -13.71872886 130.85766257 -15.10009766 129.63427734 C-16.68567049 128.27038316 -18.35612122 127.00597533 -20.04296875 125.76953125 C-22.46781061 123.96150131 -24.298689 122.50302468 -26 120 C-26.42566201 116.8265001 -26.31871498 113.95874418 -26.08203125 110.76953125 C-25.79680282 107.79843682 -25.79680282 107.79843682 -27.5 104.5625 C-29.83934836 102.16466793 -31.17732658 101.40773776 -34.08764648 100.01342773 C-36.65179657 98.42907988 -37.78849565 97.62283432 -38.76712036 94.74099731 C-39.07773145 91.87491472 -39.13509767 89.10547201 -39.09765625 86.22265625 C-39.11269447 84.65649818 -39.11269447 84.65649818 -39.1280365 83.05870056 C-39.13784774 80.85399268 -39.12733277 78.64911333 -39.09790039 76.44458008 C-39.06262904 73.07482815 -39.11785775 69.71486701 -39.18164062 66.34570312 C-39.17994824 64.20050955 -39.1729625 62.05531227 -39.16015625 59.91015625 C-39.18151138 58.90686783 -39.20286652 57.90357941 -39.22486877 56.86988831 C-39.04185227 49.99520477 -39.04185227 49.99520477 -35.99337769 47.08322144 C-33.56030273 45.48217773 -33.56030273 45.48217773 -31.13548279 44.18528748 C-28.76396556 43.04321804 -28.76396556 43.04321804 -26.875 40.375 C-25.75237717 37.14555534 -25.75237717 37.14555534 -26.62109375 34.48046875 C-27.47127947 30.89239682 -27.73768516 28.6467487 -27 25 C-23.26027634 19.7994682 -18.01830244 15.79841095 -13.10742188 11.75244141 C-10.14436804 9.28849326 -7.32624347 6.68056464 -4.5 4.0625 C-3.00121872 2.70698458 -1.50175714 1.35221776 0 0 Z " fill="#2F4A5F" transform="translate(255,75)"/>
<path d="M0 0 C3.99169281 3.2273261 7.54894757 6.51726338 10.9375 10.375 C15.2081242 15.21356558 19.69074767 19.80799648 24.25 24.375 C24.93570068 25.06513184 25.62140137 25.75526367 26.32788086 26.46630859 C29.12792857 29.2584958 31.80861865 31.85721549 34.984375 34.2265625 C35.64953125 34.81179687 36.3146875 35.39703125 37 36 C37 37.32 37 38.64 37 40 C34.69 40.66 32.38 41.32 30 42 C29.8146167 41.32203369 29.6292334 40.64406738 29.43823242 39.94555664 C27.39461353 35.76014466 24.33318754 33.06060049 20.98828125 29.87109375 C19.57723034 28.49308795 18.16643046 27.11482507 16.75585938 25.73632812 C14.52795649 23.57696092 12.29618501 21.42181788 10.05932617 19.27172852 C7.89995515 17.19053549 5.75599862 15.09440851 3.61328125 12.99609375 C2.59781975 12.03345863 2.59781975 12.03345863 1.56184387 11.05137634 C0.64044868 10.14507225 0.64044868 10.14507225 -0.29956055 9.22045898 C-0.84646042 8.69371078 -1.39336029 8.16696259 -1.95683289 7.62425232 C-3 6 -3 6 -2.79377747 3.92372131 C-2 2 -2 2 0 0 Z " fill="#5A6F83" transform="translate(278,71)"/>
<path d="M0 0 C2.85278483 0.29511567 3.83578823 0.81232941 5.75 3 C7.45763218 7.09831723 7.71056651 10.62074773 7 15 C5.39724198 17.98444597 4.0102006 20.18011588 1.37882996 22.31575012 C-0.60871516 24.74354958 -0.32416842 26.46833678 -0.2487793 29.57299805 C-0.22853195 30.71395432 -0.20828461 31.85491058 -0.18742371 33.03044128 C-0.15006607 34.26176285 -0.11270844 35.49308441 -0.07421875 36.76171875 C-0.04777786 38.02264847 -0.02133698 39.28357819 0.00590515 40.5827179 C0.07886868 43.93195014 0.16503055 47.28031622 0.25756836 50.62902832 C0.34878868 54.04735762 0.42269061 57.46605633 0.49804688 60.88476562 C0.64938232 67.59029978 0.81812699 74.29522841 1 81 C3.35764741 81.67171842 3.35764741 81.67171842 6 82 C8.27598024 80.60241532 10.110855 79.2715635 12.125 77.5625 C13.26581974 76.63795486 14.4077679 75.71480055 15.55078125 74.79296875 C16.1226416 74.32552246 16.69450195 73.85807617 17.28369141 73.37646484 C19.89547567 71.28183616 22.59616671 69.33230613 25.3125 67.375 C26.66794922 66.39660156 26.66794922 66.39660156 28.05078125 65.3984375 C29.01564453 64.70621094 29.01564453 64.70621094 30 64 C29.773125 62.845 29.54625 61.69 29.3125 60.5 C28.74073586 55.74931263 29.5471015 52.11453942 32 48 C34.62805699 45.10698904 37.25547226 43.24817591 41 42 C41 42.66 41 43.32 41 44 C40.071875 44.53625 39.14375 45.0725 38.1875 45.625 C34.3201481 48.50655632 32.82287588 51.26615224 32 56 C32.43629732 59.3657222 32.88497494 59.89900238 35.5625 62.25 C36.7690625 63.11625 36.7690625 63.11625 38 64 C37.625 65.9375 37.625 65.9375 37 68 C36.01 68.495 36.01 68.495 35 69 C34.505 70.485 34.505 70.485 34 72 C33.01 70.68 32.02 69.36 31 68 C27.68312316 68.61105228 25.6768893 69.76847155 23.03125 71.8359375 C21.92716797 72.69058594 21.92716797 72.69058594 20.80078125 73.5625 C20.04152344 74.160625 19.28226563 74.75875 18.5 75.375 C16.98958548 76.54948192 15.47916888 77.72396118 13.96875 78.8984375 C13.30294922 79.42099121 12.63714844 79.94354492 11.95117188 80.48193359 C11.30728516 80.98289551 10.66339844 81.48385742 10 82 C9.31099609 82.56283691 8.62199219 83.12567383 7.91210938 83.70556641 C6 85 6 85 3.4375 84.8125 C1 84 1 84 -2 82 C-2.39440918 79.51530457 -2.39440918 79.51530457 -2.41992188 76.34448242 C-2.43583374 75.15952682 -2.45174561 73.97457123 -2.46813965 72.75370789 C-2.46834106 71.46728897 -2.46854248 70.18087006 -2.46875 68.85546875 C-2.47636353 67.53839432 -2.48397705 66.22131989 -2.49182129 64.86433411 C-2.50528362 62.07247417 -2.50682826 59.28089702 -2.50097656 56.48901367 C-2.49509219 52.91750562 -2.52560792 49.34736256 -2.56609344 45.77611828 C-2.59823191 42.36502551 -2.59385411 38.95421244 -2.59375 35.54296875 C-2.61014526 34.26262253 -2.62654053 32.98227631 -2.64343262 31.66313171 C-2.56652541 21.79158365 -2.56652541 21.79158365 0.47460938 18.77856445 C1.30798828 18.19163818 2.14136719 17.60471191 3 17 C4.73107488 13.53785023 4.48819473 9.78509418 4 6 C2.90291271 3.63814832 1.6695627 2.03477954 0 0 Z " fill="#32485B" transform="translate(169,130)"/>
<path d="M0 0 C0 19.14 0 38.28 0 58 C-4 56 -4 56 -5 55 C-5.09353163 53.31198015 -5.11744791 51.62004793 -5.11352539 49.92944336 C-5.11344986 48.84839828 -5.11337433 47.76735321 -5.11329651 46.65354919 C-5.10813522 45.4775264 -5.10297394 44.3015036 -5.09765625 43.08984375 C-5.0962413 41.89267227 -5.09482635 40.69550079 -5.09336853 39.46205139 C-5.08774979 35.62050934 -5.07519411 31.77902457 -5.0625 27.9375 C-5.05748741 25.34049563 -5.05292409 22.74349035 -5.04882812 20.14648438 C-5.03777427 13.76430321 -5.02101792 7.3821557 -5 1 C-3 0 -3 0 0 0 Z " fill="#647E93" transform="translate(167,153)"/>
<path d="M0 0 C1.65 0 3.3 0 5 0 C5.63411232 15.67235593 6.17386318 31.31367722 6 47 C1.125 48 1.125 48 0 48 C0 32.16 0 16.32 0 0 Z " fill="#5D778B" transform="translate(212,124)"/>
<path d="M0 0 C1.65 0 3.3 0 5 0 C5 16.17 5 32.34 5 49 C3.35 49 1.7 49 0 49 C0 32.83 0 16.66 0 0 Z " fill="#7391A8" transform="translate(161,79)"/>
<path d="M0 0 C6.25201072 0.58981233 6.25201072 0.58981233 8.9375 2.0625 C10.6916922 5.26132108 10.57224754 8.49153598 10 12 C8.60991541 14.92994871 6.73249195 17.3817281 4.75 19.9375 C3.63879386 21.43710811 2.52813165 22.93711941 1.41796875 24.4375 C0.84739746 25.19546875 0.27682617 25.9534375 -0.31103516 26.734375 C-2.93049021 30.24818577 -5.42830158 33.84461272 -7.9375 37.4375 C-17.162129 50.52658211 -26.5732014 63.47950301 -36.09863281 76.35107422 C-38.59728689 79.72857012 -41.09015105 83.10737338 -43.51953125 86.53515625 C-44.21433594 87.51355469 -44.90914063 88.49195313 -45.625 89.5 C-46.19476563 90.3146875 -46.76453125 91.129375 -47.3515625 91.96875 C-49.0874676 94.10777998 -50.64653409 95.5688383 -53 97 C-56.75 97.1875 -56.75 97.1875 -60 97 C-60 96.34 -60 95.68 -60 95 C-59.42282227 94.9484375 -58.84564453 94.896875 -58.25097656 94.84375 C-53.56028764 94.16062112 -50.70843083 93.30679146 -47.734375 89.5 C-46.71411551 88.01720499 -45.72048965 86.5158365 -44.75 85 C-43.63088867 83.35370399 -42.51107735 81.70788363 -41.390625 80.0625 C-40.54854492 78.79792969 -40.54854492 78.79792969 -39.68945312 77.5078125 C-37.05724886 73.60058675 -34.27662052 69.805216 -31.5 66 C-30.41718953 64.50186497 -29.33516028 63.003165 -28.25390625 61.50390625 C-26.07670977 58.48907481 -23.89677083 55.47625306 -21.71484375 52.46484375 C-15.79951071 44.29630179 -9.8966656 36.11954826 -4.1237793 27.84936523 C-2.03497708 24.8579462 0.06650219 21.91433617 2.3046875 19.03125 C6.63142492 13.40127842 7.80488551 10.12898592 7 3 C4.69 2.67 2.38 2.34 0 2 C0 1.34 0 0.68 0 0 Z " fill="#1D4C6D" transform="translate(355,91)"/>
<path d="M0 0 C1.17219543 0.78345715 2.33763668 1.57702836 3.5 2.375 C4.47453125 3.03628906 4.47453125 3.03628906 5.46875 3.7109375 C6.22671875 4.34902344 6.22671875 4.34902344 7 5 C7 5.66 7 6.32 7 7 C7.59095459 7.26949463 8.18190918 7.53898926 8.79077148 7.81665039 C10.99378584 8.99667145 12.53533318 10.22547325 14.34765625 11.93359375 C14.95287109 12.50013672 15.55808594 13.06667969 16.18164062 13.65039062 C16.80232422 14.24013672 17.42300781 14.82988281 18.0625 15.4375 C18.68705078 16.02337891 19.31160156 16.60925781 19.95507812 17.21289062 C22.6761888 19.77137355 25.36822409 22.34942922 28 25 C27.67 25.66 27.34 26.32 27 27 C23.03308665 27.46290422 21.44081443 27.32619048 18.17578125 24.91015625 C17.20762127 23.9749485 16.2537308 23.0248055 15.3125 22.0625 C14.27498228 21.04916033 13.2345509 20.0387963 12.19140625 19.03125 C11.66691895 18.52207031 11.14243164 18.01289062 10.60205078 17.48828125 C7.27309789 14.39573373 3.60667639 11.70984728 -0.015625 8.97265625 C-0.67046875 8.32167969 -1.3253125 7.67070313 -2 7 C-2 3 -2 3 0 0 Z " fill="#5C7184" transform="translate(176,72)"/>
<path d="M0 0 C4.4817832 -0.43724714 7.53337412 0.26680255 11.390625 2.65625 C14.94279017 5.62213548 16.55765795 9.67297385 18 14 C17.55267374 15.92434691 17.06898782 17.84037127 16.5625 19.75 C15.7030882 24.03390565 15.7030882 24.03390565 17.1875 27.921875 C19.07789249 29.55855763 19.07789249 29.55855763 21.30078125 31.078125 C24.73667394 33.52452038 27.69348791 36.35276668 30.75 39.25 C35.62287539 43.93604827 35.62287539 43.93604827 41 48 C43.03871245 47.8237956 43.03871245 47.8237956 45 47 C49.44085494 45.62180364 53.99348754 45.43625991 58.484375 46.69799805 C61.01987691 47.26633661 61.01987691 47.26633661 62.95703125 45.80004883 C63.56933594 45.19185303 64.18164062 44.58365723 64.8125 43.95703125 C65.49570313 43.29509766 66.17890625 42.63316406 66.8828125 41.95117188 C67.58148438 41.24541016 68.28015625 40.53964844 69 39.8125 C70.39439531 38.4425452 71.79019461 37.07401775 73.1875 35.70703125 C73.84403564 35.05911621 74.50057129 34.41120117 75.17700195 33.74365234 C77.33931659 31.67545211 79.63084008 29.8254183 82 28 C83.35147138 26.68505488 84.69112542 25.35735142 86 24 C86.66 24.33 87.32 24.66 88 25 C83.78646501 29.33204066 79.44447599 33.41903515 74.859375 37.35546875 C73.19983315 38.82325682 71.65641767 40.33851979 70.125 41.9375 C68 44 68 44 66 44 C65.34 46.31 64.68 48.62 64 51 C62.845 50.67 61.69 50.34 60.5 50 C54.70815052 48.56230687 49.363872 47.93493029 44 51 C42.68 51 41.36 51 40 51 C40 50.34 40 49.68 40 49 C39.40541992 48.72760498 38.81083984 48.45520996 38.19824219 48.17456055 C36.05559444 47.02970512 34.57993363 45.87355302 32.828125 44.20703125 C32.24957764 43.66224121 31.67103027 43.11745117 31.07495117 42.55615234 C30.47271729 41.98074707 29.8704834 41.4053418 29.25 40.8125 C28.00227993 39.63307926 26.75358754 38.45468624 25.50390625 37.27734375 C24.90336426 36.71128418 24.30282227 36.14522461 23.68408203 35.56201172 C20.99142778 33.06453392 18.19054724 30.70053568 15.35546875 28.3671875 C14 27 14 27 13 24 C13.33 23.29875 13.66 22.5975 14 21.875 C15.44791036 17.71225771 15.12719776 14.23259025 14 10 C10.84207326 4.67099862 7.5182132 3.07042267 1.79296875 1.4453125 C0.90544922 1.22488281 0.90544922 1.22488281 0 1 C0 0.67 0 0.34 0 0 Z " fill="#20415D" transform="translate(163,46)"/>
<path d="M0 0 C2.99332739 0.9977758 3.94766315 1.7522025 6 4 C5.14277344 4.78503906 4.28554687 5.57007812 3.40234375 6.37890625 C-3.94787909 13.0974388 -3.94787909 13.0974388 -11.0625 20.0625 C-15.69290541 24.72712022 -15.69290541 24.72712022 -18 26 C-20.25 25.6875 -20.25 25.6875 -22 25 C-21.66229627 21.06012313 -20.54243692 19.16315753 -17.6484375 16.51171875 C-15.56445059 14.60057436 -13.60569091 12.58037112 -11.625 10.5625 C-7.87930691 6.83553538 -4.21059313 3.20005078 0 0 Z " fill="#5A7082" transform="translate(249,72)"/>
<path d="M0 0 C3.51415937 1.55276809 6.18580112 3.66567032 9.125 6.125 C14.36838618 10.47919822 19.66789418 14.75513485 25 19 C24.34 20.98 23.68 22.96 23 25 C17.26124826 22.4583617 12.75874026 18.00399382 8 14 C6.65421875 12.91332031 6.65421875 12.91332031 5.28125 11.8046875 C4.4665625 11.12664062 3.651875 10.44859375 2.8125 9.75 C2.07644531 9.14671875 1.34039062 8.5434375 0.58203125 7.921875 C-1 6 -1 6 -1.30078125 3.328125 C-1 1 -1 1 0 0 Z " fill="#596F84" transform="translate(229,196)"/>
<path d="M0 0 C0.556875 0.2475 1.11375 0.495 1.6875 0.75 C2.0175 2.07 2.3475 3.39 2.6875 4.75 C-2.87401422 9.39714535 -8.4872167 13.97913026 -14.25 18.375 C-15.56291016 19.38433594 -15.56291016 19.38433594 -16.90234375 20.4140625 C-19.3125 21.75 -19.3125 21.75 -21.62890625 21.4609375 C-22.18449219 21.22632813 -22.74007812 20.99171875 -23.3125 20.75 C-23.6425 19.43 -23.9725 18.11 -24.3125 16.75 C-23.82370361 16.37713867 -23.33490723 16.00427734 -22.83129883 15.62011719 C-20.59540858 13.91400982 -18.36019935 12.20701242 -16.125 10.5 C-15.35607422 9.91347656 -14.58714844 9.32695312 -13.79492188 8.72265625 C-12.66860352 7.86220703 -12.66860352 7.86220703 -11.51953125 6.984375 C-10.79032471 6.4284668 -10.06111816 5.87255859 -9.30981445 5.29980469 C-7.64541084 4.00832025 -6.02038328 2.6662892 -4.40625 1.3125 C-2.3125 -0.25 -2.3125 -0.25 0 0 Z " fill="#596F82" transform="translate(199.3125,197.25)"/>
<path d="M0 0 C0.66 0.99 1.32 1.98 2 3 C0.52719614 7.42829618 -2.79889758 8.92823679 -6.6875 11 C-7.28755859 11.33 -7.88761719 11.66 -8.50585938 12 C-9.71878682 12.66704495 -10.93479911 13.32851081 -12.15380859 13.984375 C-14.0538078 15.02960069 -15.90806039 16.13791433 -17.76953125 17.25 C-21 19 -21 19 -24 19 C-24.12375 18.360625 -24.2475 17.72125 -24.375 17.0625 C-24.58125 16.381875 -24.7875 15.70125 -25 15 C-25.66 14.67 -26.32 14.34 -27 14 C-26.26136719 13.64808594 -25.52273437 13.29617187 -24.76171875 12.93359375 C-18.3324262 9.80472584 -12.30511889 6.41550425 -6.375 2.41796875 C-4.18448317 1.11014374 -2.49148802 0.44408467 0 0 Z " fill="#597084" transform="translate(149,149)"/>
<path d="M0 0 C5.38431379 1.02558358 7.79503045 3.3736892 10.8046875 7.71484375 C13.20841758 12.31021008 13.62046573 16.93737068 12.1328125 21.8828125 C11.69912891 24.88060235 11.69912891 24.88060235 13.04223633 26.57080078 C14.60629763 28.22408274 16.23196179 29.74322041 17.9375 31.25 C19.99587254 33.13588322 22.00607536 35.04413853 24 37 C24 37.66 24 38.32 24 39 C25.485 39.495 25.485 39.495 27 40 C28.6875 41.4375 28.6875 41.4375 30 43 C30 43.66 30 44.32 30 45 C30.66 45 31.32 45 32 45 C33.34423339 46.65788785 34.67618483 48.32576317 36 50 C36.7425 50.556875 37.485 51.11375 38.25 51.6875 C38.8275 52.120625 39.405 52.55375 40 53 C40 53.66 40 54.32 40 55 C40.5775 55.2475 41.155 55.495 41.75 55.75 C44.41076851 57.22820473 46.13556544 58.58314039 48 61 C48.0625 63.625 48.0625 63.625 47 66 C44.4375 67.3125 44.4375 67.3125 42 68 C41.01 67.01 41.01 67.01 40 66 C42.97 65.505 42.97 65.505 46 65 C44.67390094 60.97310233 43.18261692 58.94405933 39.9375 56.25 C34.85549662 51.84213993 30.06838813 47.1949361 25.3125 42.4375 C24.6002124 41.72948242 23.8879248 41.02146484 23.15405273 40.29199219 C10.55361225 27.66083676 10.55361225 27.66083676 9 23 C9.33 22.01 9.66 21.02 10 20 C10.35671106 14.47097862 10.27093671 11.63382701 7 7 C7 6.34 7 5.68 7 5 C6.21625 4.690625 5.4325 4.38125 4.625 4.0625 C2 3 2 3 0 2 C0 1.34 0 0.68 0 0 Z " fill="#24384B" transform="translate(269,46)"/>
<path d="M0 0 C1.32 0 2.64 0 4 0 C4.6875 1.76171875 4.6875 1.76171875 5 4 C3.8125 5.89453125 3.8125 5.89453125 2 7.8125 C1.35933594 8.49957031 0.71867187 9.18664062 0.05859375 9.89453125 C-0.62074219 10.58933594 -1.30007813 11.28414062 -2 12 C-2.66902344 12.68449219 -3.33804687 13.36898437 -4.02734375 14.07421875 C-5.67092133 15.73124073 -7.32699739 17.37276342 -9 19 C-10.65 18.01 -12.3 17.02 -14 16 C-12.82585685 13.11801227 -11.67796428 11.69329931 -9.375 9.5 C-6.54083369 7.09138014 -6.54083369 7.09138014 -7 3 C-5.68 3 -4.36 3 -3 3 C-2.505 2.505 -2.01 2.01 -1.5 1.5 C-1.005 1.005 -0.51 0.51 0 0 Z " fill="#5A6F82" transform="translate(288,199)"/>
<path d="M0 0 C5.22115169 3.5449886 7.12782137 6.82112701 8.7421875 12.875 C8.7421875 13.535 8.7421875 14.195 8.7421875 14.875 C8.0821875 14.875 7.4221875 14.875 6.7421875 14.875 C6.44828125 13.86179687 6.44828125 13.86179687 6.1484375 12.828125 C4.01729865 6.42684856 4.01729865 6.42684856 -1.0078125 2.25 C-5.30669709 0.57199672 -8.67692656 0.28391794 -13.2578125 0.875 C-17.21303361 2.96455078 -19.88519732 5.09790572 -22.2578125 8.875 C-23.15772382 13.7880294 -22.76744139 17.83686709 -20.5703125 22.3125 C-18.28765131 24.84193537 -16.21049798 26.23461918 -13.2578125 27.875 C-13.2578125 28.535 -13.2578125 29.195 -13.2578125 29.875 C-18.45136711 28.50023555 -21.26208741 25.13158407 -24.2578125 20.875 C-25.94960716 15.79961603 -25.82153117 11.55535564 -23.6328125 6.6875 C-21.26086627 2.34734307 -18.11454964 -0.23081805 -13.3359375 -1.7265625 C-8.67837137 -2.6195545 -4.254754 -2.12001583 0 0 Z " fill="#1D5276" transform="translate(120.2578125,102.125)"/>
<path d="M0 0 C0.99 0.33 1.98 0.66 3 1 C2 3 2 3 0.2890625 3.80859375 C-3.40359467 5.73053989 -6.20265356 8.71123777 -9.19799805 11.55688477 C-11.74348095 13.96045652 -14.2452345 16.18573601 -17.04296875 18.3046875 C-19.77365607 20.40758634 -21.97995642 22.20301658 -24 25 C-24.31511571 28.28742333 -23.96610288 31.02277247 -23.40234375 34.26953125 C-23 37 -23 37 -24 40.375 C-26.5451805 43.71554941 -29.28559837 46.94709415 -33 49 C-35.22265625 48.66015625 -35.22265625 48.66015625 -37 48 C-36.18595703 47.56300781 -36.18595703 47.56300781 -35.35546875 47.1171875 C-30.63816936 44.41430244 -27.49522233 42.48248188 -26 37 C-26.20367187 36.16726562 -26.40734375 35.33453125 -26.6171875 34.4765625 C-27.47314264 30.88924488 -27.7377969 28.64730106 -27 25 C-23.26027634 19.7994682 -18.01830244 15.79841095 -13.10742188 11.75244141 C-10.14436804 9.28849326 -7.32624347 6.68056464 -4.5 4.0625 C-3.00121872 2.70698458 -1.50175714 1.35221776 0 0 Z " fill="#1A3B57" transform="translate(255,75)"/>
<path d="M0 0 C0.55417099 0.50357025 1.10834198 1.0071405 1.67930603 1.52597046 C2.60212875 2.35998383 2.60212875 2.35998383 3.54359436 3.21084595 C6.48822288 5.9923227 9.37844477 8.81847047 12.22984314 11.69540405 C13.14722008 12.61490341 13.14722008 12.61490341 14.08312988 13.55297852 C16.01072498 15.48611219 17.93478867 17.42271643 19.85874939 19.35946655 C21.17557343 20.68131354 22.49262865 22.00293027 23.80992126 23.3243103 C27.01637312 26.54170955 30.21966568 29.76222336 33.42124939 32.98446655 C32.92624939 33.97446655 32.92624939 33.97446655 32.42124939 34.98446655 C32.0322496 34.56659882 31.64324982 34.14873108 31.24246216 33.71820068 C27.17715293 29.3646722 23.06628092 25.0581118 18.92637634 20.77548218 C17.38889731 19.17273358 15.86329976 17.558497 14.35020447 15.93270874 C12.16869233 13.59297075 9.94732896 11.29831193 7.71421814 9.00790405 C7.04915756 8.27574677 6.38409698 7.54358948 5.69888306 6.78924561 C3.65837196 4.7456981 2.01963337 3.25363094 -0.57875061 1.98446655 C-3.62490857 2.03903443 -6.15125907 2.55128677 -9.07342529 3.39770508 C-11.70325104 4.01362526 -13.06350072 3.86551402 -15.57875061 2.98446655 C-15.57875061 2.32446655 -15.57875061 1.66446655 -15.57875061 0.98446655 C-14.38250061 1.02571655 -13.18625061 1.06696655 -11.95375061 1.10946655 C-8.81596354 1.15358307 -7.47959116 0.93994598 -4.51625061 -0.39053345 C-1.57875061 -1.01553345 -1.57875061 -1.01553345 0 0 Z " fill="#223343" transform="translate(274.57875061035156,76.01553344726563)"/>
<path d="M0 0 C0.33 0.66 0.66 1.32 1 2 C0.071875 2.495 -0.85625 2.99 -1.8125 3.5 C-5.21480714 5.75745497 -6.30570788 8.23236303 -7.65234375 12 C-8.06417329 14.36917666 -7.86080909 15.76004517 -7 18 C-4.52338502 20.24850483 -4.52338502 20.24850483 -2 22 C-2.375 23.9375 -2.375 23.9375 -3 26 C-3.66 26.33 -4.32 26.66 -5 27 C-5.33 27.99 -5.66 28.98 -6 30 C-10.22761989 26.04512978 -10.79547065 22.32569514 -11.09375 16.78515625 C-10.93047158 11.93442643 -9.89906566 8.02533333 -6.53125 4.43359375 C-4.48777386 2.67560325 -2.41273067 1.20636533 0 0 Z " fill="#28557A" transform="translate(209,172)"/>
<path d="M0 0 C3.88350268 0.56615984 5.75770314 2.33844647 8.5625 5 C12.17240952 8.3543407 15.84248907 11.54263586 19.6875 14.625 C21.45949693 16.08191924 23.23041129 17.54015665 25 19 C25.75410156 19.59554687 26.50820312 20.19109375 27.28515625 20.8046875 C31.8597219 24.75172824 31.8597219 24.75172824 32.26953125 28.3984375 C32.07250776 30.75528457 31.80646905 32.77624509 31 35 C30.01 35.495 30.01 35.495 29 36 C29.433125 34.7625 29.86625 33.525 30.3125 32.25 C30.75482144 29.7122465 30.75482144 29.7122465 30 27 C24.90939176 20.88658551 18.56545729 16.08363634 12.1875 11.375 C11.135625 10.59125 10.08375 9.8075 9 9 C9 8.34 9 7.68 9 7 C8.443125 6.731875 7.88625 6.46375 7.3125 6.1875 C4.78774666 4.89100504 2.36285516 3.57523677 0 2 C0 1.34 0 0.68 0 0 Z " fill="#1E3A4D" transform="translate(169,76)"/>
<path d="M0 0 C0 0.66 0 1.32 0 2 C-1.093125 2.556875 -2.18625 3.11375 -3.3125 3.6875 C-6.75911933 5.71081904 -8.59674336 7.1204081 -10 11 C-10.64772251 16.29513148 -10.62943218 20.59007192 -8.4375 25.5 C-5.425543 28.58918667 -3.04952102 29.59824272 1 31 C1 31.33 1 31.66 1 32 C-2.46475274 31.93070495 -5.0684222 31.80173399 -7.765625 29.48046875 C-12.2519386 24.30814118 -13.36062359 20.32011318 -13.28125 13.50390625 C-12.7247527 8.54953445 -9.97706409 5.86074694 -6.375 2.6875 C-2.59259259 0 -2.59259259 0 0 0 Z " fill="#174160" transform="translate(160,211)"/>
<path d="M0 0 C0 0.66 0 1.32 0 2 C-0.54269531 2.23074219 -1.08539063 2.46148437 -1.64453125 2.69921875 C-4.9226376 4.19356273 -7.51290637 5.48246302 -10 8.125 C-11.50499864 12.45187109 -11.67568757 16.47361981 -11 21 C-9.25651307 24.3669115 -9.25651307 24.3669115 -7 27 C-6.30570621 28.3191582 -5.62469505 29.64649406 -5 31 C-9.49848754 29.00067221 -11.31820159 26.52836503 -13.26953125 22.1796875 C-14.66877512 18.00440364 -14.87864595 14.30703296 -13.26953125 10.08203125 C-10.48155767 4.74505325 -6.27978566 0 0 0 Z " fill="#1D5578" transform="translate(161,46)"/>
<path d="M0 0 C2.475 0.99 2.475 0.99 5 2 C5 2.66 5 3.32 5 4 C5.59296875 4.25523437 6.1859375 4.51046875 6.796875 4.7734375 C9.2267449 6.12623741 10.49236266 7.48341276 12.25 9.625 C17.65349797 16.00043337 23.47394338 21.7791547 30 27 C29.01 27.33 28.02 27.66 27 28 C23.15162167 24.1762616 19.30647906 20.34931029 15.46435547 16.51928711 C14.15568002 15.21565379 12.84611032 13.91291757 11.53564453 12.61108398 C9.65684348 10.74435384 7.78123696 8.87446632 5.90625 7.00390625 C5.31565796 6.41847549 4.72506592 5.83304474 4.11657715 5.22987366 C2.72527666 3.83876757 1.35971469 2.42199477 0 1 C0 0.67 0 0.34 0 0 Z " fill="#174062" transform="translate(263,129)"/>
<path d="M0 0 C2 3.75 2 3.75 2 6 C2.9075 6.226875 3.815 6.45375 4.75 6.6875 C9.27798774 8.51611044 10.97675701 11.10700047 13.25 15.3125 C14.54329609 19.94681098 14.53342508 24.39972475 13 29 C12.34 29 11.68 29 11 29 C11.06960937 27.80503906 11.06960937 27.80503906 11.140625 26.5859375 C11.37593647 19.8971907 11.37593647 19.8971907 9.5 13.5625 C6.34951319 10.33325102 2.93869694 8.16054735 -1 6 C-0.67 4.02 -0.34 2.04 0 0 Z " fill="#184067" transform="translate(218,166)"/>
<path d="M0 0 C0 0.66 0 1.32 0 2 C-0.59167969 2.10957031 -1.18335938 2.21914063 -1.79296875 2.33203125 C-8.36369768 3.58887613 -8.36369768 3.58887613 -14 7 C-17.12095791 12.38096191 -17.37561169 16.86500911 -17 23 C-17.66 23 -18.32 23 -19 23 C-20.1636574 16.81719379 -20.34859774 12.61700267 -17 7 C-12.06522774 1.66931478 -7.18378879 -0.33412971 0 0 Z " fill="#184368" transform="translate(268,45)"/>
<path d="M0 0 C2.375 0.6875 2.375 0.6875 3.375 1.6875 C3.80078125 4.36328125 3.80078125 4.36328125 3.375 7.6875 C1.48481498 10.01726293 -0.24638529 11.8810098 -2.4375 13.875 C-2.98470703 14.39513672 -3.53191406 14.91527344 -4.09570312 15.45117188 C-5.59512511 16.87425965 -7.10949622 18.28155071 -8.625 19.6875 C-9.6289258 20.68355873 -10.6299902 21.68253457 -11.625 22.6875 C-11.625 19.6875 -11.625 19.6875 -9.03515625 16.98046875 C-7.36651676 15.41198769 -5.67926352 13.86757305 -3.97851562 12.33398438 C-0.41360009 8.96545939 1.13731924 6.81680413 1.375 1.6875 C-2.08425163 2.9366742 -4.77193203 4.36277795 -7.625 6.6875 C-6.17979516 2.4630551 -5.08421181 -0.60526331 0 0 Z " fill="#233441" transform="translate(290.625,197.3125)"/>
<path d="M0 0 C0.99 0.33 1.98 0.66 3 1 C1.67548828 1.94359375 1.67548828 1.94359375 0.32421875 2.90625 C-0.88802376 3.77082923 -2.10026312 4.63541288 -3.3125 5.5 C-3.94317383 5.94907715 -4.57384766 6.3981543 -5.22363281 6.86083984 C-8.26909048 9.03320488 -11.30499762 11.2153282 -14.30859375 13.4453125 C-15.27925781 14.16460937 -16.24992188 14.88390625 -17.25 15.625 C-18.12140625 16.27726562 -18.9928125 16.92953125 -19.890625 17.6015625 C-22 19 -22 19 -24 19 C-23.67 20.32 -23.34 21.64 -23 23 C-23.66 23 -24.32 23 -25 23 C-25.33 21.68 -25.66 20.36 -26 19 C-22.97980897 16.7699621 -19.95872992 14.54113018 -16.9375 12.3125 C-16.08994141 11.68666016 -15.24238281 11.06082031 -14.36914062 10.41601562 C-12.69776534 9.18345701 -11.02381348 7.95438381 -9.34716797 6.72900391 C-7.85981064 5.63336581 -6.38329493 4.5227239 -4.92236328 3.39208984 C-3.33634001 2.18577749 -1.67388533 1.08109537 0 0 Z " fill="#223546" transform="translate(203,201)"/>
<path d="M0 0 C0.66 0.33 1.32 0.66 2 1 C-2.21353499 5.33204066 -6.55552401 9.41903515 -11.140625 13.35546875 C-12.80016685 14.82325682 -14.34358233 16.33851979 -15.875 17.9375 C-18 20 -18 20 -20 20 C-20.33 20.99 -20.66 21.98 -21 23 C-23.0625 24.1875 -23.0625 24.1875 -25 25 C-23.37191763 20.64801058 -20.12112494 18.08293744 -16.75 15.0625 C-16.18925781 14.55009766 -15.62851563 14.03769531 -15.05078125 13.50976562 C-12.32523602 11.03285558 -9.56283581 8.61502351 -6.7265625 6.265625 C-4.33918651 4.28184552 -2.1511547 2.23389142 0 0 Z " fill="#25394A" transform="translate(249,70)"/>
<path d="M0 0 C6.25201072 0.58981233 6.25201072 0.58981233 8.9375 2.0625 C10.80976944 5.4766384 10.94643383 8.32458518 10 12 C7.62680892 16.22417671 4.89684019 20.12030331 2 24 C1.34 23.34 0.68 22.68 0 22 C0.5053125 21.38253906 1.010625 20.76507813 1.53125 20.12890625 C6.16185881 14.09257691 7.85883663 10.60683875 7 3 C4.69 2.67 2.38 2.34 0 2 C0 1.34 0 0.68 0 0 Z " fill="#194665" transform="translate(355,91)"/>
<path d="M0 0 C4.4817832 -0.43724714 7.53337412 0.26680255 11.390625 2.65625 C14.94279017 5.62213548 16.55765795 9.67297385 18 14 C17.6953125 16.41015625 17.6953125 16.41015625 17.125 19.0625 C16.94195312 19.94035156 16.75890625 20.81820312 16.5703125 21.72265625 C16 24 16 24 15 26 C14.34 26 13.68 26 13 26 C13.350625 25.030625 13.70125 24.06125 14.0625 23.0625 C15.32175452 18.55473382 15.2411741 14.51261312 14 10 C10.84207326 4.67099862 7.5182132 3.07042267 1.79296875 1.4453125 C0.90544922 1.22488281 0.90544922 1.22488281 0 1 C0 0.67 0 0.34 0 0 Z " fill="#1E5578" transform="translate(163,46)"/>
<path d="M0 0 C5.38230196 1.02520037 7.79693436 3.37069772 10.80078125 7.71484375 C13.41276644 12.69207937 13.47148865 17.20834312 12.0625 22.5625 C11.711875 23.366875 11.36125 24.17125 11 25 C10.34 25 9.68 25 9 25 C9.165 24.34 9.33 23.68 9.5 23 C10.5431907 16.74085579 10.78528484 12.36248686 7 7 C7 6.34 7 5.68 7 5 C6.21625 4.690625 5.4325 4.38125 4.625 4.0625 C2 3 2 3 0 2 C0 1.34 0 0.68 0 0 Z " fill="#163F64" transform="translate(269,46)"/>
<path d="M0 0 C0 0.99 0 1.98 0 3 C-1.77246094 4.68579102 -1.77246094 4.68579102 -4.234375 6.50390625 C-5.56082031 7.49100586 -5.56082031 7.49100586 -6.9140625 8.49804688 C-7.84992188 9.17931641 -8.78578125 9.86058594 -9.75 10.5625 C-10.67039063 11.24763672 -11.59078125 11.93277344 -12.5390625 12.63867188 C-19.99010047 18.14056151 -19.99010047 18.14056151 -24 20 C-22.69915049 16.09745148 -20.9355525 15.21669301 -17.625 12.8125 C-17.09422852 12.42392822 -16.56345703 12.03535645 -16.01660156 11.63500977 C-14.3492206 10.41655805 -12.67479933 9.20822726 -11 8 C-9.91872255 7.21168899 -8.83797802 6.42264642 -7.7578125 5.6328125 C-5.17646306 3.74876265 -2.59047826 1.87146756 0 0 Z " fill="#203142" transform="translate(199,194)"/>
<path d="M0 0 C0.66 0.66 1.32 1.32 2 2 C0.28919984 4.34897955 -1.44123573 6.67762544 -3.1875 9 C-3.67025391 9.66773438 -4.15300781 10.33546875 -4.65039062 11.0234375 C-8.32237116 15.85369377 -8.32237116 15.85369377 -11.75 16.59375 C-14 16 -14 16 -15.8125 13.5 C-16.204375 12.675 -16.59625 11.85 -17 11 C-14.13275314 11.57344937 -13.1385485 11.8614515 -11 14 C-9.53998252 12.23055495 -8.08204407 10.45939429 -6.625 8.6875 C-5.81289063 7.70136719 -5.00078125 6.71523437 -4.1640625 5.69921875 C-1.94395043 3.01091621 -1.94395043 3.01091621 0 0 Z " fill="#164566" transform="translate(308,146)"/>
<path d="M0 0 C4.38415136 1.42188693 6.99823021 3.5844167 10.3125 6.75 C14.67848458 10.8320181 19.11672238 14.55791893 24 18 C23.67 18.66 23.34 19.32 23 20 C5.57531855 6.51632047 5.57531855 6.51632047 0 1 C0 0.67 0 0.34 0 0 Z " fill="#24374E" transform="translate(230,195)"/>
<path d="M0 0 C0.845625 0.144375 1.69125 0.28875 2.5625 0.4375 C4.2640625 0.7159375 4.2640625 0.7159375 6 1 C7.093125 1.226875 8.18625 1.45375 9.3125 1.6875 C13.34189303 2.02897399 16.16741512 1.36748271 19.984375 0.1796875 C22 0 22 0 23.765625 1.4453125 C24.17296875 1.95835937 24.5803125 2.47140625 25 3 C23.07206429 3.23676403 21.14393564 3.47206733 19.21484375 3.69921875 C17.29557949 3.95985957 15.39388715 4.34416704 13.5 4.75 C9.09837529 5.06440176 5.88606871 4.02790252 2 2 C1.34 1.34 0.68 0.68 0 0 Z " fill="#194A6A" transform="translate(204,200)"/>
<path d="M0 0 C4.04665201 1.69187651 7.15034764 4.4836706 10.4375 7.3125 C10.99759766 7.78623047 11.55769531 8.25996094 12.13476562 8.74804688 C15.58507684 11.6910778 18.83502791 14.75220621 22 18 C17.78369314 17.48653874 15.67871843 15.11006175 12.6875 12.25 C9.50929257 9.26776782 6.42233974 6.4458506 2.8125 4 C1.884375 3.34 0.95625 2.68 0 2 C0 1.34 0 0.68 0 0 Z " fill="#243649" transform="translate(228,203)"/>
<path d="M0 0 C0.66 0 1.32 0 2 0 C1.96519531 0.79664063 1.93039063 1.59328125 1.89453125 2.4140625 C1.66665976 10.6787194 1.66665976 10.6787194 5 18 C4.01 18 3.02 18 2 18 C-1.11647527 12.93572769 -1.5729774 8.78486795 -1 3 C-0.67 2.01 -0.34 1.02 0 0 Z " fill="#16446A" transform="translate(249,221)"/>
<path d="M0 0 C0 0.99 0 1.98 0 3 C-1.58086048 3.36504603 -3.16483907 3.71660506 -4.75 4.0625 C-5.63171875 4.25972656 -6.5134375 4.45695312 -7.421875 4.66015625 C-9.98679028 4.99825872 -11.57091639 4.81158635 -14 4 C-14 3.34 -14 2.68 -14 2 C-12.80375 2.04125 -11.6075 2.0825 -10.375 2.125 C-6.57670047 2.13851708 -3.55024382 1.42009753 0 0 Z " fill="#184B6A" transform="translate(273,75)"/>
<path d="M0 0 C0.99 0.33 1.98 0.66 3 1 C3.433125 2.2065625 3.433125 2.2065625 3.875 3.4375 C4.77007889 6.21795689 4.77007889 6.21795689 7.5 7.25 C8.325 7.4975 9.15 7.745 10 8 C10.66 8.33 11.32 8.66 12 9 C12 9.66 12 10.32 12 11 C6.33017912 9.92003412 4.2691695 7.26884803 1.1015625 2.77734375 C0 1 0 1 0 0 Z " fill="#164360" transform="translate(96,178)"/>
<path d="M0 0 C0.99 0.33 1.98 0.66 3 1 C1.73034469 2.43854058 0.45922782 3.87579127 -0.8125 5.3125 C-1.52019531 6.11300781 -2.22789062 6.91351563 -2.95703125 7.73828125 C-4.59337122 9.54983162 -6.25272168 11.29681703 -8 13 C-7.39665691 9.29496359 -5.77525763 7.14031852 -3.4375 4.25 C-2.79683594 3.45078125 -2.15617187 2.6515625 -1.49609375 1.828125 C-1.00238281 1.22484375 -0.50867188 0.6215625 0 0 Z " fill="#154B6C" transform="translate(340,106)"/>
<path d="M0 0 C0.33 0.66 0.66 1.32 1 2 C-1.64 5.63 -4.28 9.26 -7 13 C-7.66 12.67 -8.32 12.34 -9 12 C-6.03 8.04 -3.06 4.08 0 0 Z " fill="#134465" transform="translate(334,143)"/>
<path d="M0 0 C0.99 0.33 1.98 0.66 3 1 C2 3 2 3 0.3125 3.8125 C-2.87684831 5.45027346 -5.28763188 7.65750026 -8 10 C-7.4346089 6.49304707 -6.31277274 4.97267387 -3.625 2.6875 C-3.01914063 2.15511719 -2.41328125 1.62273437 -1.7890625 1.07421875 C-0.90347656 0.54248047 -0.90347656 0.54248047 0 0 Z " fill="#244156" transform="translate(255,75)"/>
<path d="M0 0 C3.45195767 1.4258086 5.1014256 3.09746334 7.25 6.125 C8.03117187 7.21167969 8.03117187 7.21167969 8.828125 8.3203125 C9.40820312 9.15175781 9.40820312 9.15175781 10 10 C6.54804233 8.5741914 4.8985744 6.90253666 2.75 3.875 C1.96882812 2.78832031 1.96882812 2.78832031 1.171875 1.6796875 C0.78515625 1.12539062 0.3984375 0.57109375 0 0 Z " fill="#164163" transform="translate(251,140)"/>
<path d="M0 0 C0.66 0.99 1.32 1.98 2 3 C1.34 3 0.68 3 0 3 C0 3.66 0 4.32 0 5 C-0.66 5 -1.32 5 -2 5 C-2.33 5.66 -2.66 6.32 -3 7 C-3.99 5.35 -4.98 3.7 -6 2 C-4.02 1.34 -2.04 0.68 0 0 Z " fill="#3F6C89" transform="translate(204,97)"/>
<path d="M0 0 C1.32 0.66 2.64 1.32 4 2 C4 2.66 4 3.32 4 4 C3.34 4 2.68 4 2 4 C2 4.66 2 5.32 2 6 C1.01 6 0.02 6 -1 6 C-1.042721 4.33388095 -1.04063832 2.66617115 -1 1 C-0.67 0.67 -0.34 0.34 0 0 Z " fill="#566E80" transform="translate(229,196)"/>
<path d="M0 0 C0.8971875 0.309375 0.8971875 0.309375 1.8125 0.625 C-2.6875 3.625 -2.6875 3.625 -7.1875 6.625 C-4.6484375 -0.796875 -4.6484375 -0.796875 0 0 Z " fill="#2D3D49" transform="translate(290.1875,197.375)"/>
<path d="M0 0 C2.96175123 0.61277612 4.38058783 1.25372522 7 3 C7.66 3.33 8.32 3.66 9 4 C8 5 8 5 5.625 5.375 C4.325625 5.189375 4.325625 5.189375 3 5 C1.1875 2.5 1.1875 2.5 0 0 Z " fill="#195D7C" transform="translate(291,157)"/>
<path d="M0 0 C2.475 0.99 2.475 0.99 5 2 C5 2.66 5 3.32 5 4 C6.32 4.66 7.64 5.32 9 6 C8.34 6.66 7.68 7.32 7 8 C5.83035398 6.8572081 4.66435444 5.71068285 3.5 4.5625 C2.8503125 3.92441406 2.200625 3.28632813 1.53125 2.62890625 C0 1 0 1 0 0 Z " fill="#0F3550" transform="translate(263,129)"/>
<path d="M0 0 C-0.33 0.99 -0.66 1.98 -1 3 C-3.97 3 -6.94 3 -10 3 C-10 2.34 -10 1.68 -10 1 C-9.05125 1.020625 -8.1025 1.04125 -7.125 1.0625 C-4.31337204 1.00626744 -2.6726858 0 0 0 Z " fill="#225370" transform="translate(118,186)"/>
<path d="M0 0 C0.66 0.66 1.32 1.32 2 2 C1.64644564 4.26274788 1.02455574 5.95088852 0 8 C-0.66 8 -1.32 8 -2 8 C-2 6.68 -2 5.36 -2 4 C-1.34 4 -0.68 4 0 4 C0 2.68 0 1.36 0 0 Z " fill="#457692" transform="translate(127,117)"/>
<path d="M0 0 C3.33727786 1.17255709 5.77437487 2.18868404 8 5 C8 5.66 8 6.32 8 7 C6 7 6 7 3.4375 4.625 C1 2 1 2 0 0 Z " fill="#253E53" transform="translate(177,72)"/>
<path d="" fill="#FFFFFF" transform="translate(0,0)"/>
<path d="" fill="#FFFFFF" transform="translate(0,0)"/>
<path d="" fill="#FFFFFF" transform="translate(0,0)"/>
<path d="" fill="#FFFFFF" transform="translate(0,0)"/>
<path d="" fill="#FFFFFF" transform="translate(0,0)"/>
<path d="" fill="#FFFFFF" transform="translate(0,0)"/>
<path d="" fill="#FFFFFF" transform="translate(0,0)"/>
<path d="" fill="#FFFFFF" transform="translate(0,0)"/>
<path d="" fill="#FFFFFF" transform="translate(0,0)"/>
<path d="" fill="#FFFFFF" transform="translate(0,0)"/>
<path d="" fill="#FFFFFF" transform="translate(0,0)"/>
<path d="" fill="#FFFFFF" transform="translate(0,0)"/>
<path d="" fill="#000000" transform="translate(0,0)"/>
<path d="" fill="#000000" transform="translate(0,0)"/>
<path d="" fill="#FFFFFF" transform="translate(0,0)"/>
<path d="" fill="#FFFFFF" transform="translate(0,0)"/>
<path d="" fill="#FFFFFF" transform="translate(0,0)"/>
<path d="" fill="#FFFFFF" transform="translate(0,0)"/>
<path d="" fill="#FFFFFF" transform="translate(0,0)"/>
<path d="" fill="#FFFFFF" transform="translate(0,0)"/>
<path d="" fill="#FFFFFF" transform="translate(0,0)"/>
<path d="" fill="#FFFFFF" transform="translate(0,0)"/>
<path d="" fill="#FFFFFF" transform="translate(0,0)"/>
<path d="" fill="#FFFFFF" transform="translate(0,0)"/>
<path d="" fill="#FFFFFF" transform="translate(0,0)"/>
<path d="" fill="#FFFFFF" transform="translate(0,0)"/>
<path d="" fill="#FFFFFF" transform="translate(0,0)"/>
<path d="" fill="#FFFFFF" transform="translate(0,0)"/>
<path d="" fill="#FFFFFF" transform="translate(0,0)"/>
<path d="" fill="#FFFFFF" transform="translate(0,0)"/>
<path d="" fill="#FFFFFF" transform="translate(0,0)"/>
<path d="" fill="#FFFFFF" transform="translate(0,0)"/>
<path d="" fill="#FFFFFF" transform="translate(0,0)"/>
<path d="" fill="#FFFFFF" transform="translate(0,0)"/>
<path d="" fill="#FFFFFF" transform="translate(0,0)"/>
<path d="" fill="#FFFFFF" transform="translate(0,0)"/>
<path d="" fill="#FFFFFF" transform="translate(0,0)"/>
<path d="" fill="#FFFFFF" transform="translate(0,0)"/>
<path d="" fill="#FFFFFF" transform="translate(0,0)"/>
<path d="" fill="#2A5555" transform="translate(0,0)"/>
<path d="" fill="#FFFFFF" transform="translate(0,0)"/>
<path d="" fill="#FFFFFF" transform="translate(0,0)"/>
<path d="" fill="#FFFFFF" transform="translate(0,0)"/>
<path d="" fill="#FFFFFF" transform="translate(0,0)"/>
<path d="" fill="#FFFFFF" transform="translate(0,0)"/>
<path d="" fill="#FFFFFF" transform="translate(0,0)"/>
<path d="" fill="#FFFFFF" transform="translate(0,0)"/>
<path d="" fill="#FFFFFF" transform="translate(0,0)"/>
<path d="" fill="#FFFFFF" transform="translate(0,0)"/>
<path d="" fill="#FFFFFF" transform="translate(0,0)"/>
<path d="" fill="#FFFFFF" transform="translate(0,0)"/>
<path d="" fill="#FFFFFF" transform="translate(0,0)"/>
<path d="" fill="#FFFFFF" transform="translate(0,0)"/>
<path d="" fill="#FFFFFF" transform="translate(0,0)"/>
<path d="" fill="#FFFFFF" transform="translate(0,0)"/>
<path d="" fill="#FFFFFF" transform="translate(0,0)"/>
<path d="" fill="#FFFFFF" transform="translate(0,0)"/>
<path d="" fill="#FFFFFF" transform="translate(0,0)"/>
<path d="" fill="#FFFFFF" transform="translate(0,0)"/>
<path d="" fill="#FFFFFF" transform="translate(0,0)"/>
<path d="" fill="#FFFFFF" transform="translate(0,0)"/>
<path d="" fill="#FFFFFF" transform="translate(0,0)"/>
<path d="" fill="#FFFFFF" transform="translate(0,0)"/>
<path d="" fill="#FFFFFF" transform="translate(0,0)"/>
<path d="" fill="#FFFFFF" transform="translate(0,0)"/>
<path d="" fill="#FFFFFF" transform="translate(0,0)"/>
<path d="" fill="#FFFFFF" transform="translate(0,0)"/>
<path d="" fill="#FFFFFF" transform="translate(0,0)"/>
<path d="" fill="#FFFFFF" transform="translate(0,0)"/>
<path d="" fill="#FFFFFF" transform="translate(0,0)"/>
<path d="" fill="#FFFFFF" transform="translate(0,0)"/>
<path d="" fill="#FFFFFF" transform="translate(0,0)"/>
<path d="" fill="#FFFFFF" transform="translate(0,0)"/>
<path d="" fill="#FFFFFF" transform="translate(0,0)"/>
</svg>
